<?xml version="1.0" encoding="UTF-8" standalone="no"?>
<svg
   version="1.0"
   width="3763.000000pt"
   height="2117.000000pt"
   viewBox="0 0 3763.000000 2117.000000"
   preserveAspectRatio="xMidYMid meet"
   id="svg36"
   sodipodi:docname="logo.svg"
   inkscape:version="1.4 (86a8ad7, 2024-10-11)"
   xmlns:inkscape="http://www.inkscape.org/namespaces/inkscape"
   xmlns:sodipodi="http://sodipodi.sourceforge.net/DTD/sodipodi-0.dtd"
   xmlns="http://www.w3.org/2000/svg"
   xmlns:svg="http://www.w3.org/2000/svg">
  <defs
     id="defs36" />
  <sodipodi:namedview
     id="namedview36"
     pagecolor="#ffffff"
     bordercolor="#666666"
     borderopacity="1.0"
     inkscape:showpageshadow="2"
     inkscape:pageopacity="0.0"
     inkscape:pagecheckerboard="0"
     inkscape:deskcolor="#d1d1d1"
     inkscape:document-units="pt"
     inkscape:zoom="0.20416581"
     inkscape:cx="2537.1535"
     inkscape:cy="1731.4358"
     inkscape:window-width="1920"
     inkscape:window-height="1017"
     inkscape:window-x="-8"
     inkscape:window-y="32"
     inkscape:window-maximized="1"
     inkscape:current-layer="g36" />
  <g
     transform="translate(0.000000,2117.000000) scale(0.100000,-0.100000)"
     fill="#000000"
     stroke="none"
     id="g36">
    <path
       d="M9415 21146 c-70 -31 -82 -61 -144 -377 -27 -139 -149 -747 -271 -1349 -210 -1047 -406 -2018 -785 -3905 -95 -473 -230 -1146 -301 -1495 -95 -477 -126 -644 -120 -672 9 -49 72 -112 128 -127 32 -9 218 -11 693 -9 638 3 651 3 690 24 22 12 48 35 58 52 12 20 71 291 158 724 77 381 189 938 249 1238 60 300 209 1038 330 1640 121 602 236 1174 255 1270 19 96 114 567 210 1045 311 1543 355 1765 355 1796 0 55 -54 126 -113 148 -45 17 -1353 14 -1392 -3z"
       id="path1"
       style="fill:#333333" />
    <path
       d="M13902 21143 c-18 -9 -43 -30 -55 -47 l-22 -31 0 -3877 0 -3877 21 -28 c12 -15 36 -37 55 -48 33 -19 52 -20 709 -20 663 0 676 0 710 21 19 11 45 35 57 54 l23 33 0 3861 c0 3656 -1 3863 -18 3896 -9 20 -34 44 -57 57 l-40 23 -675 0 c-602 0 -679 -2 -708 -17z"
       id="path2"
       style="fill:#333333" />
    <path
       d="M19446 21137 c-21 -12 -47 -38 -57 -57 -19 -34 -19 -150 -17 -3902 l3 -3867 21 -28 c12 -15 36 -37 55 -48 33 -19 52 -20 709 -20 663 0 676 0 710 21 19 11 45 35 57 54 l23 33 0 3859 c0 3267 -2 3864 -14 3892 -7 18 -29 44 -47 57 l-34 24 -685 2 -685 3 -39 -23z"
       id="path3"
       style="fill:#333333" />
    <path
       d="M22106 21137 c-21 -12 -47 -38 -57 -57 -19 -34 -19 -150 -17 -3902 l3 -3867 21 -28 c12 -15 36 -37 55 -48 33 -19 52 -20 704 -20 652 0 671 1 704 20 19 11 43 33 55 48 l21 28 3 3857 c3 4328 10 3919 -72 3967 l-43 25 -669 0 -669 0 -39 -23z"
       id="path4"
       style="fill:#333333" />
    <path
       d="M23861 21138 c-19 -13 -44 -36 -55 -51 -21 -28 -21 -38 -24 -595 -2 -312 0 -591 3 -621 6 -43 14 -61 43 -92 50 -53 90 -59 391 -59 135 0 266 -5 291 -11 148 -34 313 -165 381 -304 l34 -70 3 -473 c3 -517 2 -533 -55 -629 -63 -107 -189 -210 -313 -254 -61 -22 -84 -24 -365 -29 -278 -5 -302 -6 -335 -25 -19 -12 -43 -36 -55 -55 -20 -34 -20 -50 -20 -635 0 -584 1 -601 20 -635 12 -21 39 -44 65 -57 42 -22 55 -23 300 -23 184 0 274 -4 323 -15 179 -38 326 -155 404 -320 l28 -60 0 -541 0 -540 -37 -75 c-49 -97 -102 -157 -194 -218 -130 -87 -161 -93 -514 -101 -168 -4 -306 -8 -307 -8 -1 -1 -18 -16 -37 -33 -56 -49 -58 -66 -54 -709 3 -557 4 -576 23 -610 12 -19 36 -43 55 -55 33 -19 51 -20 380 -20 373 1 457 8 685 62 402 94 764 305 1064 618 276 289 433 602 497 990 14 81 18 198 21 615 6 623 -4 766 -67 997 -61 222 -202 490 -359 678 l-49 60 42 50 c176 210 311 471 376 730 51 200 55 266 55 835 0 456 -2 540 -18 638 -65 412 -224 720 -531 1028 -337 338 -696 526 -1176 615 -101 19 -162 22 -500 26 l-385 5 -34 -24z"
       id="path5"
       style="fill:#333333" />
    <path
       d="M27695 21146 c-41 -18 -83 -69 -90 -109 -3 -18 -4 -1762 -3 -3877 l3 -3845 23 -33 c51 -70 12 -67 757 -67 658 0 671 0 705 21 19 11 45 35 57 54 l23 33 0 3859 c0 3267 -2 3864 -14 3892 -7 18 -29 44 -47 57 l-34 24 -675 2 c-546 2 -681 0 -705 -11z"
       id="path6"
       style="fill:#333333" />
    <path
       d="M29435 21146 c-38 -17 -60 -42 -80 -89 -13 -31 -15 -117 -15 -615 l0 -578 23 -44 c28 -56 58 -77 128 -90 37 -7 456 -10 1235 -8 l1179 3 41 23 c84 48 79 8 79 699 0 602 0 612 -21 639 -11 15 -33 37 -48 48 -27 21 -32 21 -1259 23 -1007 2 -1237 0 -1262 -11z"
       id="path7"
       style="fill:#333333" />
    <path
       d="M33192 21140 c-18 -11 -41 -34 -52 -52 -20 -33 -20 -59 -20 -3896 0 -3528 1 -3867 16 -3898 9 -18 33 -44 53 -56 l36 -23 685 0 c641 0 687 1 718 18 18 10 42 32 52 50 20 32 20 81 20 3898 l0 3866 -22 33 c-13 18 -36 43 -51 54 -28 21 -36 21 -715 24 -672 2 -688 2 -720 -18z"
       id="path8"
       style="fill:#333333" />
    <path
       d="M34965 21146 c-16 -7 -38 -23 -48 -34 -45 -50 -46 -66 -46 -667 0 -601 1 -617 46 -667 44 -50 63 -52 463 -58 373 -5 375 -5 425 -29 63 -32 131 -99 158 -159 l22 -47 0 -1305 c0 -1060 -2 -1312 -13 -1343 -20 -55 -101 -138 -169 -172 l-58 -30 -380 -5 c-425 -6 -422 -5 -467 -77 l-23 -38 0 -775 0 -776 216 -359 c662 -1102 783 -1303 802 -1329 11 -15 38 -37 61 -47 39 -18 81 -19 776 -19 451 0 748 4 769 10 39 11 86 51 107 92 30 57 20 83 -104 288 -112 184 -263 432 -557 915 -123 202 -230 378 -404 664 -44 74 -81 143 -81 153 0 13 28 32 100 68 203 102 334 194 489 344 224 218 399 508 470 780 52 200 52 182 49 1696 -4 1578 1 1473 -80 1715 -94 285 -269 536 -520 751 -305 260 -632 406 -1028 460 -146 19 -931 19 -975 0z"
       id="path9"
       style="fill:#333333" />
    <path
       d="M4098 21128 c-479 -69 -890 -263 -1219 -576 -364 -345 -568 -744 -618 -1204 -8 -65 -11 -782 -11 -2165 0 -1778 2 -2086 15 -2190 53 -426 241 -800 565 -1123 343 -343 761 -547 1280 -625 125 -19 170 -13 216 28 67 58 64 24 64 692 0 644 1 634 -47 678 -11 9 -57 32 -104 50 -46 18 -104 46 -129 62 -68 42 -171 153 -207 221 -68 127 -63 -32 -63 2214 0 1952 1 2038 19 2102 47 171 188 317 376 389 44 17 91 41 103 52 53 49 52 31 52 682 0 666 1 651 -60 695 -48 34 -95 38 -232 18z"
       id="path10"
       style="fill:#333333" />
    <path
       d="M4650 21121 c-19 -10 -45 -33 -57 -51 l-23 -33 0 -621 c0 -587 1 -623 19 -649 25 -39 46 -52 137 -85 136 -50 229 -122 303 -236 82 -125 84 -137 90 -526 5 -253 10 -352 19 -370 7 -14 29 -37 49 -50 l37 -25 692 0 c688 0 693 0 721 21 15 12 37 36 48 55 19 32 20 51 19 409 0 340 -2 386 -22 495 -58 320 -166 572 -354 823 -83 111 -279 313 -384 395 -294 230 -639 381 -1024 446 -153 26 -224 27 -270 2z"
       id="path11"
       style="fill:#333333" />
    <path
       d="M11089 20481 c-80 -26 -101 -62 -134 -231 -13 -69 -101 -505 -195 -970 -94 -465 -218 -1077 -275 -1360 -57 -283 -108 -535 -114 -560 -6 -25 -11 -68 -11 -96 0 -28 54 -322 120 -654 88 -436 118 -606 110 -614 -7 -7 -86 -13 -208 -16 -287 -8 -291 -11 -342 -276 -17 -87 -67 -341 -111 -563 -43 -223 -79 -421 -79 -442 0 -49 35 -99 90 -127 44 -22 47 -22 497 -22 l452 0 10 -37 c5 -21 48 -236 96 -478 47 -242 97 -498 112 -570 27 -139 38 -167 75 -202 57 -54 45 -53 750 -53 616 0 655 1 694 19 49 22 90 72 99 121 4 25 -67 400 -260 1360 -146 729 -461 2304 -701 3500 -267 1337 -442 2186 -452 2205 -10 16 -32 38 -50 48 -36 21 -133 31 -173 18z"
       id="path12"
       style="fill:#333333" />
    <path
       d="M29457 17936 c-51 -19 -83 -50 -102 -100 -14 -36 -15 -115 -13 -621 l3 -580 23 -38 c48 -77 -16 -72 950 -75 570 -2 876 1 902 8 23 6 52 26 74 50 l36 41 -2 618 -3 619 -25 27 c-59 64 -1 60 -945 62 -712 2 -867 0 -898 -11z"
       id="path13"
       style="fill:#333333" />
    <path
       d="M5227 15966 c-42 -15 -72 -39 -90 -71 -8 -14 -14 -140 -18 -400 -6 -432 -6 -432 -88 -558 -76 -116 -186 -198 -345 -258 -33 -12 -67 -34 -85 -55 l-31 -35 0 -622 0 -622 25 -37 c14 -20 44 -46 70 -58 44 -21 50 -22 143 -10 700 86 1297 465 1640 1040 115 194 194 413 238 665 15 84 18 164 19 505 l0 405 -23 37 c-13 20 -40 47 -60 60 l-37 23 -660 2 c-539 2 -667 0 -698 -11z"
       id="path14"
       style="fill:#333333" />
    <path
       d="M15660 14628 c-26 -14 -53 -37 -65 -58 -19 -34 -20 -51 -20 -640 l0 -605 23 -36 c12 -20 39 -45 60 -55 35 -18 89 -19 1267 -19 1212 0 1230 0 1264 20 19 11 43 33 55 48 21 28 21 37 24 625 2 389 -1 609 -7 632 -13 43 -53 83 -100 99 -25 8 -368 11 -1245 11 l-1212 0 -44 -22z"
       id="path15"
       style="fill:#333333" />
    <path
       d="M29445 14635 c-46 -16 -81 -55 -95 -105 -15 -53 -12 -1166 3 -1208 20 -54 62 -89 120 -102 37 -8 389 -10 1247 -8 1178 3 1195 3 1230 23 21 12 44 39 58 65 l22 44 0 586 0 586 -22 44 c-17 33 -35 51 -68 68 l-44 22 -1206 0 c-1013 -1 -1211 -3 -1245 -15z"
       id="path16"
       style="fill:#333333" />
    <path
       d="M18520 12568 c-50 -11 -372 -14 -388 -4 -6 3 -14 1 -17 -5 -5 -7 -21 -8 -42 -4 -20 3 -234 6 -477 5 -521 -2 -436 -2 -686 -1 -113 0 -263 0 -335 -1 -71 0 -247 0 -390 1 -143 2 -264 2 -270 1 -5 -1 -62 -1 -125 0 -63 1 -124 2 -135 2 -11 -1 -56 -1 -100 -1 -44 1 -87 1 -95 0 -8 0 -67 0 -130 1 -63 0 -144 0 -180 0 -59 -1 -208 -1 -525 -1 -60 0 -166 0 -235 0 -69 -1 -199 0 -290 0 -91 1 -194 1 -230 0 -36 -1 -225 -1 -420 0 -195 0 -449 0 -565 -1 -188 0 -2376 -1 -2450 -1 -16 0 -232 0 -480 0 -247 0 -544 0 -660 1 -186 1 -2135 2 -2580 1 -93 0 -330 0 -526 1 -196 1 -361 -2 -367 -6 -7 -4 -17 -4 -24 0 -6 4 -174 6 -372 5 -426 -3 -352 -3 -616 -1 -118 1 -264 2 -325 2 -60 0 -567 0 -1126 0 -559 1 -1021 -2 -1026 -5 -6 -4 -22 -4 -35 1 -12 4 -93 7 -178 6 -133 -1 -163 -4 -210 -22 -30 -12 -64 -22 -75 -22 -12 0 -26 -5 -32 -11 -5 -5 -21 -11 -34 -13 -13 -2 -31 -6 -39 -9 -8 -3 -37 -12 -65 -20 -27 -8 -63 -20 -80 -26 -16 -6 -77 -24 -135 -41 -58 -18 -121 -38 -140 -45 -44 -17 -184 -68 -230 -84 -19 -7 -48 -16 -65 -21 -44 -12 -156 -56 -216 -85 -29 -14 -57 -25 -63 -25 -18 0 -172 -63 -271 -112 -139 -68 -211 -110 -249 -147 -17 -17 -37 -31 -43 -31 -19 0 -97 -94 -128 -155 -25 -50 -29 -69 -29 -139 0 -63 5 -90 22 -123 12 -23 22 -48 22 -56 0 -18 95 -113 142 -143 20 -13 52 -26 70 -29 18 -3 61 -13 95 -21 34 -8 90 -14 125 -13 75 3 461 -9 568 -17 41 -4 104 -8 140 -10 60 -4 158 -15 255 -29 22 -3 96 -12 165 -21 69 -8 146 -19 172 -25 26 -6 51 -8 57 -5 5 3 28 -2 52 -11 24 -9 69 -19 99 -23 94 -13 173 -31 225 -52 28 -11 73 -24 100 -27 28 -4 77 -19 110 -33 33 -14 93 -36 132 -48 86 -26 303 -138 458 -236 104 -66 295 -234 295 -260 0 -6 10 -19 21 -30 27 -24 86 -114 117 -179 13 -27 30 -62 37 -76 18 -33 66 -211 71 -264 17 -168 19 -233 12 -320 -5 -55 -10 -131 -11 -170 -2 -38 -9 -80 -16 -93 -7 -13 -10 -36 -6 -52 4 -16 1 -39 -6 -52 -7 -13 -16 -52 -20 -88 -16 -125 -52 -311 -73 -373 -8 -24 -12 -53 -10 -64 3 -12 -2 -35 -11 -53 -9 -17 -18 -53 -20 -79 -2 -26 -15 -75 -29 -109 -14 -34 -26 -74 -26 -89 0 -15 -10 -48 -21 -73 -11 -25 -22 -63 -24 -85 -3 -39 -22 -111 -70 -265 -12 -41 -28 -101 -35 -134 -7 -32 -20 -77 -31 -100 -10 -22 -19 -54 -19 -69 0 -16 -14 -59 -30 -97 -17 -38 -30 -77 -30 -87 0 -11 -16 -63 -35 -117 -19 -54 -35 -106 -35 -116 0 -10 -11 -43 -25 -73 -13 -31 -27 -69 -30 -84 -11 -66 -19 -90 -47 -152 -16 -36 -32 -86 -35 -111 -3 -25 -9 -49 -13 -55 -4 -5 -16 -39 -28 -75 -11 -36 -30 -94 -42 -130 -12 -36 -33 -99 -46 -140 -12 -41 -36 -113 -52 -160 -16 -47 -34 -103 -40 -125 -5 -22 -19 -62 -30 -90 -11 -27 -41 -117 -67 -200 -26 -82 -54 -170 -62 -195 -9 -25 -28 -85 -43 -135 -16 -49 -37 -115 -48 -145 -11 -30 -24 -73 -28 -95 -4 -22 -16 -60 -26 -85 -11 -25 -23 -63 -28 -85 -5 -22 -20 -71 -34 -108 -14 -37 -26 -78 -26 -91 0 -13 -14 -53 -31 -89 -16 -36 -32 -83 -34 -104 -2 -21 -13 -63 -25 -93 -12 -30 -26 -79 -32 -110 -5 -30 -16 -66 -23 -81 -8 -14 -16 -37 -19 -50 -10 -53 -30 -126 -46 -164 -9 -22 -17 -57 -19 -79 -1 -21 -13 -66 -26 -99 -14 -33 -25 -74 -25 -91 0 -17 -9 -50 -20 -73 -10 -23 -22 -63 -26 -90 -4 -26 -15 -65 -25 -88 -10 -22 -23 -67 -28 -100 -6 -33 -20 -98 -31 -145 -11 -47 -24 -108 -29 -136 -5 -29 -17 -76 -25 -105 -9 -29 -16 -69 -16 -88 -1 -20 -7 -47 -15 -61 -8 -14 -14 -38 -15 -55 0 -28 -13 -93 -46 -228 -8 -32 -12 -62 -10 -66 3 -4 -4 -50 -15 -102 -19 -91 -38 -222 -45 -304 -1 -22 -10 -98 -18 -170 -14 -113 -20 -211 -31 -465 -4 -109 15 -210 58 -310 22 -52 53 -108 69 -124 15 -15 28 -34 28 -42 0 -7 26 -34 57 -61 31 -26 75 -65 97 -87 92 -87 470 -302 638 -363 39 -14 113 -45 165 -69 51 -24 99 -44 106 -44 15 -1 109 -32 162 -55 34 -15 81 -18 305 -22 270 -4 314 -9 325 -43 3 -10 18 -31 33 -48 15 -17 43 -54 62 -82 32 -48 91 -123 138 -176 18 -21 21 -21 649 -20 347 1 635 4 638 8 4 4 15 3 24 -1 11 -6 1266 -14 1751 -12 8 0 411 0 895 0 484 0 889 0 900 0 11 0 139 -1 285 -1 146 0 273 0 283 1 29 2 236 3 382 1 251 -2 342 24 397 114 14 23 57 92 96 155 l70 114 -19 43 c-18 40 -39 78 -125 227 -66 113 -81 141 -133 242 -27 55 -73 138 -101 184 -27 46 -50 90 -50 96 0 7 -7 18 -16 25 -8 8 -22 27 -29 44 -14 30 -20 40 -56 96 -9 14 -46 81 -81 150 -64 123 -104 196 -139 255 -10 17 -34 62 -54 102 -41 82 -44 139 -19 283 9 47 17 103 19 125 6 62 25 187 30 195 3 4 7 29 11 56 3 27 10 83 16 124 5 41 11 95 12 120 2 25 9 64 15 88 7 23 10 46 7 50 -3 5 -1 26 5 48 5 21 18 111 29 199 27 221 38 288 50 321 6 15 9 37 6 49 -3 11 0 38 5 60 6 22 17 90 24 150 14 106 34 259 56 415 19 144 29 225 29 250 0 13 7 46 16 72 8 26 13 57 9 67 -3 11 0 31 6 43 7 13 19 75 26 138 7 63 18 147 23 185 6 39 13 96 15 128 2 31 7 63 12 70 4 6 11 37 14 67 4 30 12 73 18 95 22 87 40 179 35 186 -3 5 0 27 6 50 13 46 41 226 37 237 -1 4 3 25 10 47 11 40 27 116 43 208 5 26 18 73 29 103 12 30 21 69 21 87 1 18 7 43 15 57 8 14 14 43 15 66 0 22 9 67 21 100 11 32 24 79 29 104 16 83 66 245 97 310 16 36 33 85 37 109 8 51 68 173 170 345 52 88 93 142 153 202 89 90 129 118 213 151 128 48 81 46 1245 50 605 2 1107 3 1115 3 98 1 168 2 180 1 20 -1 2891 -2 2910 -1 41 2 40 15 -11 135 -55 129 -104 239 -120 267 -9 18 -34 82 -49 131 -5 16 -19 97 -31 180 -21 138 -23 186 -22 522 1 259 6 413 17 515 9 80 14 151 11 157 -2 7 2 30 10 52 9 27 10 42 3 49 -7 7 -6 27 5 64 21 74 46 187 50 223 2 17 18 62 34 100 36 81 43 104 48 147 11 83 344 650 403 685 12 7 40 39 63 70 24 32 48 60 53 62 6 2 25 18 41 35 17 18 48 45 70 61 21 17 55 47 73 68 19 20 45 40 59 43 13 4 30 15 38 27 13 19 31 31 115 82 18 11 48 32 65 48 18 15 39 27 47 27 8 0 18 4 24 9 23 23 432 230 455 231 8 0 19 4 25 9 5 4 63 29 129 55 66 26 146 60 177 76 106 53 100 53 643 57 281 2 517 3 525 3 8 0 1039 -2 2290 -5 1251 -2 2282 -4 2290 -4 8 0 112 0 230 1 118 0 226 0 240 0 14 -1 806 0 1760 2 1159 2 1754 7 1791 14 94 18 219 90 219 127 0 8 9 19 19 25 11 5 76 103 144 218 168 281 178 300 169 306 -5 3 -85 5 -178 4 -93 0 -181 3 -196 7 -16 4 -28 3 -28 -1 0 -5 -96 -8 -212 -7 -117 1 -415 2 -663 2 -247 0 -504 0 -570 1 -66 0 -192 0 -280 -1 -88 0 -236 0 -330 0 -93 0 -231 0 -305 0 -74 0 -200 1 -280 2 -80 1 -156 2 -170 1 -30 -1 -754 -3 -1290 -3 -212 0 -396 0 -410 -1 -31 -1 -188 1 -295 3 -100 2 -226 2 -800 -2 -166 -1 -935 1 -1040 2 -33 1 -170 1 -305 1 -135 0 -261 0 -280 0 -19 1 -118 1 -220 0 -102 -1 -255 -1 -340 -2 -85 0 -180 0 -210 -1 -100 -1 -615 0 -640 1 -14 1 -31 1 -37 1 -7 -1 -19 -1 -25 -1 -7 0 -143 2 -303 4 -159 2 -303 6 -320 9 -16 3 -50 1 -75 -5z m-14665 -601 c429 0 805 1 835 2 109 2 379 -7 389 -14 6 -3 11 -16 11 -27 0 -31 -66 -209 -116 -311 -24 -50 -44 -100 -44 -113 0 -20 -17 -61 -82 -204 -11 -25 -28 -72 -38 -105 -10 -33 -36 -103 -59 -155 -22 -52 -41 -103 -41 -113 0 -9 -22 -71 -50 -137 -27 -66 -50 -128 -50 -138 0 -10 -4 -22 -9 -27 -5 -6 -18 -35 -29 -65 -12 -30 -32 -82 -46 -115 -14 -33 -27 -74 -30 -91 -3 -17 -22 -66 -42 -109 -19 -44 -41 -102 -49 -129 -7 -28 -29 -87 -48 -132 -20 -44 -41 -102 -47 -130 -15 -72 -101 -236 -116 -223 -7 6 -15 54 -19 117 -7 106 -25 225 -48 312 -6 25 -12 47 -13 50 0 3 -4 23 -9 45 -4 22 -25 78 -46 124 -22 46 -39 89 -39 95 -1 18 -52 116 -93 176 -64 95 -70 104 -98 135 -14 17 -30 38 -35 47 -14 25 -95 119 -133 153 -18 16 -75 68 -125 113 -50 46 -107 93 -126 103 -19 11 -75 45 -125 75 -135 84 -361 199 -440 224 -38 12 -88 30 -111 40 -22 10 -65 26 -95 35 -107 33 -275 84 -329 100 -30 9 -77 19 -105 22 -27 3 -55 10 -61 14 -13 10 -165 39 -208 39 -16 0 -52 6 -80 14 -53 15 -229 38 -306 40 -52 1 -103 29 -98 53 2 10 26 23 63 33 33 10 85 27 115 38 30 11 89 30 130 42 41 13 91 28 110 35 19 7 37 13 40 12 7 -1 111 33 135 43 11 6 221 9 481 7 253 -1 473 1 490 4 16 4 36 4 44 1 8 -3 366 -5 795 -5z m10945 -7 c8 0 155 0 325 0 171 0 339 1 375 1 325 4 1309 1 1317 -4 6 -4 19 -4 28 -1 29 12 13 -29 -18 -44 -15 -7 -32 -22 -37 -33 -6 -10 -18 -19 -28 -19 -9 0 -50 -27 -90 -60 -41 -33 -77 -60 -82 -60 -4 0 -35 -25 -69 -55 -34 -30 -66 -55 -70 -55 -5 0 -27 -17 -48 -37 -22 -21 -53 -50 -69 -65 -70 -64 -174 -177 -202 -218 -17 -25 -53 -66 -79 -92 -26 -26 -72 -87 -102 -135 -30 -48 -69 -110 -86 -138 -42 -65 -180 -321 -205 -381 -12 -26 -23 -62 -26 -79 -3 -18 -25 -78 -49 -134 -25 -55 -45 -112 -45 -126 0 -14 -10 -45 -21 -68 -12 -23 -25 -66 -30 -97 -4 -30 -17 -95 -29 -145 -11 -49 -22 -132 -25 -183 -2 -52 -9 -108 -14 -125 -13 -41 -27 -260 -36 -572 -3 -93 -6 -177 -7 -185 0 -8 3 -60 7 -115 4 -55 9 -152 11 -215 2 -63 6 -136 9 -161 4 -38 2 -49 -16 -65 -21 -19 -68 -19 -2248 -20 -2346 -2 -2287 -1 -2430 -43 -18 -6 -36 -9 -40 -9 -11 3 -115 -34 -176 -63 -154 -74 -314 -193 -385 -284 -21 -28 -52 -60 -67 -71 -26 -19 -52 -57 -166 -244 -58 -94 -177 -330 -177 -350 0 -10 -20 -64 -45 -121 -24 -57 -45 -112 -45 -122 0 -10 -11 -51 -24 -90 -13 -40 -32 -101 -41 -137 -19 -76 -49 -182 -75 -260 -9 -30 -18 -74 -18 -97 -1 -23 -8 -55 -16 -72 -9 -16 -16 -44 -16 -61 0 -17 -7 -47 -16 -68 -9 -20 -20 -62 -25 -92 -4 -30 -15 -91 -24 -135 -9 -44 -20 -107 -25 -140 -5 -33 -16 -96 -25 -140 -9 -44 -19 -109 -23 -145 -5 -36 -14 -76 -21 -89 -7 -12 -10 -32 -8 -43 3 -11 -1 -42 -9 -69 -8 -27 -12 -54 -9 -59 3 -5 1 -27 -5 -47 -6 -21 -16 -69 -21 -108 -5 -38 -13 -95 -18 -125 -18 -105 -32 -195 -41 -260 -5 -36 -14 -94 -21 -130 -6 -36 -12 -80 -14 -98 -2 -18 -6 -50 -11 -70 -4 -20 -8 -50 -9 -67 -6 -75 -27 -225 -40 -289 -8 -39 -14 -84 -14 -101 1 -16 -8 -86 -20 -155 -11 -69 -25 -165 -31 -215 -11 -98 -14 -123 -31 -235 -6 -41 -15 -102 -20 -135 -4 -33 -13 -87 -19 -120 -5 -33 -16 -116 -25 -185 -14 -119 -24 -191 -45 -325 -30 -184 -63 -434 -64 -485 -1 -25 -5 -51 -9 -57 -4 -7 -10 -42 -13 -78 -3 -37 -9 -77 -14 -89 -12 -32 5 -110 35 -153 14 -21 25 -41 25 -46 0 -4 17 -34 37 -65 20 -31 60 -105 90 -164 29 -59 58 -110 64 -113 6 -4 19 -26 30 -49 10 -22 32 -63 49 -91 17 -27 33 -57 37 -65 3 -8 14 -24 23 -35 10 -11 20 -39 24 -62 8 -52 -9 -64 -86 -63 -139 1 -201 1 -446 0 -144 -1 -271 2 -282 5 -11 3 -25 3 -31 0 -6 -4 -211 -6 -457 -5 -246 1 -476 1 -512 1 -74 -1 -272 -2 -630 -2 -401 0 -426 0 -650 -1 -118 0 -222 0 -230 0 -55 3 -147 3 -155 2 -5 -1 -14 -1 -20 0 -5 1 -46 1 -90 0 -44 -1 -280 -1 -525 -1 -245 1 -519 1 -610 0 -862 -1 -1284 2 -1331 11 -30 6 -92 28 -137 50 -46 22 -91 40 -100 40 -29 0 -162 63 -317 149 -199 111 -299 179 -332 227 -27 38 -28 42 -25 154 2 63 8 120 13 125 7 7 279 9 787 8 427 -2 831 -3 897 -2 66 1 194 1 285 0 91 0 175 -1 188 0 42 0 67 0 187 0 66 0 716 2 1445 4 729 3 1489 5 1690 6 201 0 377 3 391 5 40 7 59 53 75 182 8 64 25 185 39 267 14 83 28 170 30 195 2 25 11 64 19 87 8 24 11 45 6 48 -5 3 -2 24 6 47 7 22 14 57 14 78 0 20 5 50 10 66 6 16 12 49 14 74 12 117 24 197 33 215 6 11 13 52 16 90 6 63 15 112 48 266 6 26 12 69 14 95 2 27 8 78 14 114 6 36 15 94 20 130 5 36 14 78 20 94 7 16 9 42 6 57 -4 16 -2 43 3 61 19 62 42 180 37 188 -3 5 0 21 6 37 6 15 12 48 15 73 4 55 29 216 44 290 6 30 15 89 21 130 5 41 13 100 19 130 5 30 13 82 18 116 5 34 15 77 21 96 6 19 10 43 9 54 -3 24 8 99 28 191 9 39 13 76 10 82 -4 5 0 29 9 53 8 24 14 57 14 74 -1 38 28 189 41 214 6 11 10 26 8 33 -1 6 2 35 7 62 4 28 7 60 6 72 -1 12 4 50 13 85 19 82 28 145 27 186 -1 18 3 42 9 52 10 19 24 93 40 210 5 36 14 92 20 125 6 33 13 82 15 108 2 27 9 65 15 85 5 20 10 53 10 72 0 19 7 67 15 105 9 39 20 102 25 140 11 87 24 166 45 275 16 83 25 141 44 270 11 70 27 171 42 260 5 30 14 84 19 120 6 36 15 90 20 120 5 30 14 88 19 128 6 40 12 76 15 81 3 4 7 30 10 57 2 27 7 60 11 74 10 43 -24 75 -92 88 -72 14 -147 24 -193 26 -39 2 -173 55 -231 92 -87 55 -158 141 -188 229 -23 67 -30 165 -15 204 8 18 14 47 14 63 0 16 11 50 24 76 31 59 151 178 177 174 10 -2 22 6 28 16 6 12 26 22 52 26 22 4 54 13 70 21 22 12 75 15 253 15 147 0 234 4 250 11 20 9 26 21 31 58 3 25 10 65 15 88 6 23 10 60 10 83 0 23 4 60 9 83 14 64 29 144 41 227 7 41 17 98 22 125 15 73 28 153 33 205 2 25 8 72 14 105 5 33 14 92 20 130 5 39 15 84 21 101 6 17 9 44 7 60 -2 16 0 38 5 48 9 17 37 174 58 326 33 238 43 301 55 340 8 26 11 65 8 92 l-5 46 -932 1 c-512 1 -960 1 -996 1 -227 -1 -414 2 -422 6 -4 3 -13 2 -20 -2 -6 -4 -108 -6 -227 -5 -275 3 -310 2 -344 -5 -29 -6 -96 28 -98 49 -1 14 -1 180 0 280 1 63 3 68 30 85 28 17 218 18 4068 15 2221 -2 4045 -3 4053 -3z"
       id="path17"
       style="fill:#333333" />
    <path
       d="M13319 11736 c-3 -3 -158 -8 -345 -11 -186 -3 -352 -7 -369 -10 -35 -6 -102 -12 -230 -20 -49 -3 -175 -17 -280 -30 -104 -13 -212 -27 -240 -29 -225 -23 -655 -130 -746 -185 -19 -12 -43 -21 -55 -21 -11 0 -31 -11 -44 -25 -13 -14 -29 -25 -37 -25 -11 0 -101 -72 -145 -117 -44 -45 -191 -241 -222 -297 -53 -95 -176 -392 -176 -426 0 -16 -7 -47 -15 -67 -8 -21 -16 -64 -19 -95 -2 -31 -8 -63 -12 -69 -19 -31 -22 -338 -5 -464 19 -138 71 -307 136 -440 13 -27 32 -68 41 -90 9 -22 34 -65 54 -95 20 -30 45 -71 54 -92 10 -20 26 -44 37 -54 10 -9 19 -21 19 -26 0 -12 130 -168 140 -168 4 0 36 -28 71 -61 69 -67 155 -126 264 -181 79 -40 286 -108 327 -108 15 0 39 -5 55 -11 30 -11 132 -26 248 -35 39 -3 109 -9 157 -13 48 -4 284 -5 525 -4 241 2 925 3 1521 3 l1083 1 15 34 c8 20 17 63 20 98 3 34 12 82 19 107 7 25 16 77 20 115 3 39 10 87 16 108 6 22 13 64 15 95 5 54 7 77 18 232 11 155 7 544 -8 704 -8 92 -15 171 -14 175 1 3 -2 13 -5 21 -3 8 -11 56 -17 105 -28 232 -117 530 -218 730 -63 125 -80 155 -106 186 -14 17 -26 35 -26 39 0 21 -152 175 -245 250 -81 65 -113 84 -170 101 -38 12 -87 30 -107 40 -21 11 -54 19 -75 19 -21 0 -56 9 -78 19 -23 10 -54 17 -70 15 -17 -2 -44 1 -60 6 -17 6 -51 12 -75 14 -25 2 -112 11 -193 20 -82 9 -159 13 -172 10 -13 -3 -29 -3 -36 1 -6 5 -50 9 -98 10 -47 1 -97 5 -111 9 -14 4 -28 5 -31 2z m161 -612 c179 -7 188 -8 295 -24 44 -7 97 -12 118 -11 21 0 54 -6 73 -14 19 -8 41 -12 50 -8 8 3 40 -4 72 -15 31 -11 73 -23 92 -26 26 -4 52 -23 97 -69 78 -78 101 -112 151 -212 98 -197 145 -372 192 -715 19 -143 31 -570 19 -680 -5 -41 -11 -112 -13 -156 -7 -137 93 -122 -820 -123 -637 -1 -1500 -8 -1551 -12 -5 -1 -62 2 -125 5 -63 4 -147 9 -186 10 -140 7 -342 44 -429 78 -87 35 -168 90 -247 169 -43 43 -78 82 -78 88 0 6 -12 27 -26 48 -14 21 -50 90 -81 153 -30 63 -59 123 -65 134 -24 46 -39 119 -44 220 -3 61 -7 112 -8 115 -5 8 10 152 24 236 7 39 23 93 36 122 14 28 31 74 38 102 18 70 99 200 176 282 63 68 69 71 168 105 56 18 112 34 125 34 12 0 58 11 102 24 44 14 163 36 265 50 102 14 217 31 255 37 39 6 102 12 140 13 39 1 76 5 83 9 6 5 15 6 20 3 4 -2 64 2 132 9 153 16 113 14 378 19 123 2 225 6 228 8 4 5 93 3 344 -8z"
       id="path18"
       style="fill:#333333" />
    <path
       d="M12245 10982 c-4 -4 -75 -10 -200 -17 -60 -3 -135 -10 -165 -16 -30 -5 -108 -12 -174 -15 -84 -3 -127 -9 -146 -20 -16 -10 -51 -59 -87 -123 -64 -113 -83 -158 -83 -200 0 -14 -10 -55 -22 -91 -19 -57 -22 -87 -22 -255 l0 -190 38 -120 c21 -66 43 -124 47 -129 5 -6 9 -19 10 -30 0 -12 14 -41 29 -66 16 -25 36 -59 44 -77 60 -130 328 -348 465 -378 19 -4 71 -25 115 -47 84 -40 128 -46 134 -16 2 9 -8 41 -22 71 -14 30 -26 61 -26 69 0 8 -7 23 -15 34 -8 10 -15 25 -15 33 0 7 -13 41 -29 75 -16 33 -45 120 -66 191 -50 177 -54 193 -59 247 -3 26 -7 52 -10 57 -3 5 -6 40 -6 77 1 38 1 79 0 92 0 44 30 197 50 249 10 28 42 93 71 145 51 91 75 129 177 278 29 41 52 80 52 86 0 6 9 23 21 38 31 39 21 51 -45 51 -32 0 -59 -1 -61 -3z"
       id="path19"
       style="fill:#333333" />
    <path
       d="M8859 9229 c-77 -27 -135 -80 -170 -153 -55 -115 -32 -242 57 -323 46 -41 171 -106 190 -99 16 6 140 -10 190 -25 16 -5 53 -11 81 -14 37 -3 99 -28 234 -94 240 -117 279 -131 359 -131 78 0 193 16 235 31 58 22 155 73 155 81 0 5 16 18 35 29 57 34 106 139 107 229 1 40 -21 143 -32 154 -5 5 -10 18 -10 27 0 17 -46 78 -108 144 -44 46 -176 111 -265 129 -63 13 -90 14 -140 5 -183 -32 -352 -37 -441 -14 -32 8 -61 13 -65 11 -4 -3 -43 2 -87 10 -135 25 -260 26 -325 3z m1150 -150 c114 -34 213 -218 182 -336 -6 -21 -13 -51 -16 -66 -6 -29 -96 -121 -143 -146 -64 -34 -155 -40 -248 -17 -28 7 -93 60 -116 94 -68 101 -68 102 -68 167 0 123 26 185 105 252 82 69 188 87 304 52z"
       id="path20"
       style="fill:#333333" />
    <path
       d="M22778 11203 c-10 -12 -118 -586 -327 -1733 -171 -943 -311 -1724 -311 -1736 0 -11 8 -28 18 -37 16 -15 52 -17 295 -17 237 0 278 2 291 16 9 8 16 16 16 17 0 1 142 778 315 1727 310 1701 314 1725 296 1750 l-18 25 -280 3 c-257 2 -281 1 -295 -15z"
       id="path21"
       style="fill:#333333" />
    <path
       d="M24606 11204 c-14 -14 -16 -187 -16 -1754 0 -1567 2 -1740 16 -1754 13 -14 54 -16 294 -16 277 0 279 0 294 22 14 20 16 202 16 1748 0 1546 -2 1728 -16 1748 -15 22 -17 22 -294 22 -240 0 -281 -2 -294 -16z"
       id="path22"
       style="fill:#333333" />
    <path
       d="M25686 11204 c-14 -14 -16 -187 -16 -1758 0 -1341 3 -1745 12 -1754 9 -9 88 -12 294 -12 244 0 285 2 298 16 14 14 16 186 16 1750 0 1721 0 1734 -20 1754 -19 19 -33 20 -294 20 -236 0 -277 -2 -290 -16z"
       id="path23"
       style="fill:#333333" />
    <path
       d="M26396 11198 c-14 -19 -16 -64 -16 -290 0 -255 1 -269 20 -288 18 -18 33 -20 173 -20 170 0 198 -9 237 -72 19 -32 20 -52 20 -641 l0 -608 -39 -42 -39 -42 -171 -5 c-120 -4 -174 -9 -183 -18 -10 -10 -13 -91 -13 -370 l0 -357 189 -345 c103 -190 199 -362 212 -382 l24 -38 314 0 c340 0 346 1 346 54 0 13 -106 215 -236 450 -129 235 -233 433 -230 441 2 7 33 28 68 46 40 22 95 66 154 124 77 77 98 105 141 192 90 178 88 161 88 918 -1 648 -1 661 -23 738 -68 243 -235 432 -462 524 -105 42 -181 53 -377 53 -177 0 -182 -1 -197 -22z"
       id="path24"
       style="fill:#333333" />
    <path
       d="M31066 11204 c-15 -14 -16 -146 -14 -1407 l3 -1392 28 -88 c77 -248 240 -440 462 -547 88 -43 218 -80 276 -80 67 0 69 7 69 315 0 148 -4 275 -8 281 -4 6 -23 19 -42 29 -62 31 -105 72 -136 127 l-29 53 -5 1346 c-4 1121 -7 1349 -19 1362 -12 15 -45 17 -292 17 -240 0 -280 -2 -293 -16z"
       id="path25"
       style="fill:#333333" />
    <path
       d="M32227 11202 c-15 -17 -17 -133 -19 -1363 l-3 -1344 -30 -54 c-30 -55 -82 -101 -142 -126 -17 -7 -36 -23 -43 -34 -7 -15 -10 -105 -8 -292 3 -254 4 -271 22 -285 27 -19 68 -18 162 6 296 74 547 329 636 645 l23 80 3 1369 c2 1221 1 1371 -13 1392 l-15 24 -279 0 c-256 0 -279 -1 -294 -18z"
       id="path26"
       style="fill:#333333" />
    <path
       d="M33316 11204 c-14 -14 -16 -187 -16 -1754 0 -1567 2 -1740 16 -1754 13 -14 54 -16 294 -16 277 0 279 0 294 22 14 20 16 202 16 1748 0 1546 -2 1728 -16 1748 -15 22 -17 22 -294 22 -240 0 -281 -2 -294 -16z"
       id="path27"
       style="fill:#333333" />
    <path
       d="M34486 11204 c-14 -14 -16 -87 -17 -642 -1 -345 -4 -694 -8 -776 l-6 -149 -183 593 c-101 326 -188 603 -193 616 -9 27 -40 32 -58 10 -8 -10 -11 -259 -9 -952 l3 -939 197 -629 c109 -345 203 -635 209 -642 9 -11 72 -14 335 -14 l324 0 5 23 c3 12 4 799 3 1748 -3 1682 -3 1727 -22 1748 -19 20 -27 21 -292 21 -234 0 -275 -2 -288 -16z"
       id="path28"
       style="fill:#333333" />
    <path
       d="M29465 11191 c-335 -88 -581 -349 -650 -686 -14 -71 -15 -193 -13 -1090 l3 -1010 28 -88 c91 -290 301 -506 576 -591 46 -15 109 -29 141 -33 94 -9 91 -20 88 315 l-3 285 -54 28 c-66 35 -95 61 -129 119 l-27 45 -3 940 c-2 661 0 952 8 980 18 65 68 124 140 164 l65 37 3 288 c2 205 -1 293 -9 302 -16 19 -79 17 -164 -5z"
       id="path29"
       style="fill:#333333" />
    <path
       d="M29757 11192 c-15 -16 -17 -52 -17 -293 0 -151 4 -280 9 -287 4 -7 30 -24 57 -36 27 -13 64 -38 82 -56 62 -61 66 -78 72 -271 4 -128 9 -180 19 -192 12 -15 46 -17 296 -17 251 0 284 2 296 17 21 25 18 342 -5 453 -32 157 -107 304 -218 424 -116 126 -262 212 -435 256 -95 25 -135 25 -156 2z"
       id="path30"
       style="fill:#333333" />
    <path
       d="M36210 11184 c-164 -48 -268 -110 -391 -233 -122 -123 -193 -245 -242 -416 -25 -89 -36 -417 -17 -534 17 -107 68 -246 126 -343 53 -90 194 -241 276 -297 74 -49 352 -191 376 -191 12 0 31 9 42 20 19 19 20 33 20 314 0 162 -3 302 -6 311 -4 9 -24 25 -46 36 -59 30 -116 87 -146 143 -24 48 -26 62 -30 209 -3 109 0 173 8 204 17 60 95 144 159 171 27 12 51 29 55 38 3 8 6 136 6 283 0 225 -2 270 -16 289 -20 29 -64 28 -174 -4z"
       id="path31"
       style="fill:#333333" />
    <path
       d="M36511 11184 c-20 -25 -21 -39 -21 -286 0 -160 4 -267 10 -279 6 -10 32 -30 58 -43 55 -28 126 -101 150 -154 12 -28 18 -81 22 -212 5 -174 5 -175 30 -187 36 -19 553 -14 572 5 18 18 17 361 -2 457 -68 356 -311 617 -657 705 -105 27 -137 26 -162 -6z"
       id="path32"
       style="fill:#333333" />
    <path
       d="M23456 10907 c-14 -11 -43 -151 -147 -718 l-130 -704 51 -285 c60 -332 65 -310 -62 -310 -70 0 -79 -2 -92 -22 -13 -22 -98 -484 -98 -536 0 -47 20 -52 223 -52 107 0 190 -4 194 -9 3 -6 26 -124 50 -263 55 -307 51 -293 71 -312 13 -14 54 -16 293 -16 257 0 279 1 294 18 10 10 17 27 17 37 0 16 -533 2966 -561 3102 -6 29 -17 60 -25 68 -19 18 -54 19 -78 2z"
       id="path33"
       style="fill:#333333" />
    <path
       d="M29702 9764 c-22 -15 -22 -17 -22 -294 0 -337 -14 -310 162 -310 l118 0 0 -330 c0 -263 -3 -338 -14 -365 -22 -52 -91 -120 -145 -144 -27 -11 -51 -28 -55 -37 -3 -8 -6 -138 -6 -288 0 -252 1 -274 18 -289 25 -22 72 -21 167 4 330 86 579 353 646 694 11 55 14 205 14 703 l0 634 -24 19 c-22 18 -44 19 -430 19 -352 0 -410 -2 -429 -16z"
       id="path34"
       style="fill:#333333" />
    <path
       d="M36514 9716 c-18 -14 -19 -31 -22 -310 -2 -194 1 -303 8 -315 6 -11 41 -40 78 -64 74 -48 116 -101 138 -173 20 -68 19 -305 -2 -367 -21 -63 -84 -131 -149 -162 -30 -14 -59 -34 -65 -45 -15 -27 -13 -522 2 -555 15 -34 47 -40 126 -26 310 57 593 324 682 641 49 177 49 493 0 669 -60 214 -205 417 -380 532 -76 50 -353 189 -377 189 -10 0 -28 -6 -39 -14z"
       id="path35"
       style="fill:#333333" />
    <path
       d="M35562 8888 c-15 -15 -17 -379 -1 -464 23 -131 77 -261 154 -369 49 -69 159 -177 228 -224 107 -73 294 -141 388 -141 68 0 69 7 69 315 0 148 -4 275 -8 281 -4 6 -26 21 -49 33 -67 34 -114 81 -145 146 -27 59 -28 64 -28 228 0 97 -4 177 -10 188 -10 18 -24 19 -298 19 -211 0 -291 -3 -300 -12z"
       id="path36"
       style="fill:#333333" />
  </g>
</svg>
