<?xml version="1.0" encoding="UTF-8" standalone="no"?>
<svg
   version="1.0"
   width="3763pt"
   height="2000pt"
   viewBox="0 0 3763 2000"
   preserveAspectRatio="xMidYMid"
   id="svg36"
   sodipodi:docname="logo.svg"
   inkscape:version="1.4 (86a8ad7, 2024-10-11)"
   xmlns:inkscape="http://www.inkscape.org/namespaces/inkscape"
   xmlns:sodipodi="http://sodipodi.sourceforge.net/DTD/sodipodi-0.dtd"
   xmlns="http://www.w3.org/2000/svg"
   xmlns:svg="http://www.w3.org/2000/svg">
  <defs
     id="defs36" />
  <sodipodi:namedview
     id="namedview36"
     pagecolor="#ffffff"
     bordercolor="#666666"
     borderopacity="1.0"
     inkscape:showpageshadow="2"
     inkscape:pageopacity="0.0"
     inkscape:pagecheckerboard="0"
     inkscape:deskcolor="#d1d1d1"
     inkscape:document-units="pt"
     inkscape:zoom="0.12814465"
     inkscape:cx="2294.2823"
     inkscape:cy="1431.9755"
     inkscape:window-width="1920"
     inkscape:window-height="1017"
     inkscape:window-x="-8"
     inkscape:window-y="32"
     inkscape:window-maximized="1"
     inkscape:current-layer="g36" />
  <g
     transform="matrix(0.1,0,0,-0.1,0,2385)"
     fill="#000000"
     stroke="none"
     id="g36">
    <path
       d="m 25790,23844 c 0,-6 -357,-1966 -365,-2005 -12,-53 9,-59 189,-59 120,0 166,3 174,13 12,14 372,1977 372,2026 v 31 h -185 c -102,0 -185,-3 -185,-6 z"
       id="path1"
       style="fill:#4a4a4a;fill-opacity:1" />
    <path
       d="m 26856,23834 c -3,-8 -6,-467 -6,-1019 0,-899 2,-1005 16,-1019 21,-22 335,-24 353,-2 8,10 10,287 9,1032 l -3,1019 -181,3 c -159,2 -182,0 -188,-14 z"
       id="path2"
       style="fill:#4a4a4a;fill-opacity:1" />
    <path
       d="m 27486,23834 c -11,-29 -7,-2014 4,-2035 10,-18 23,-19 179,-19 130,0 171,3 180,14 8,10 10,287 9,1032 l -3,1019 -181,3 c -159,2 -182,0 -188,-14 z"
       id="path3"
       style="fill:#4a4a4a;fill-opacity:1" />
    <path
       d="m 27907,23844 c -13,-13 -8,-329 5,-342 7,-7 44,-12 94,-12 167,0 164,8 164,-408 0,-208 -4,-330 -11,-351 -16,-47 -53,-61 -157,-61 -73,0 -91,-3 -96,-16 -3,-9 -6,-105 -6,-215 v -200 l 121,-222 c 67,-122 127,-225 133,-229 6,-4 92,-8 191,-8 183,0 205,4 205,38 0,8 -61,124 -135,259 -74,134 -135,250 -135,257 0,8 14,19 32,27 44,18 138,114 170,175 54,101 58,135 58,541 0,396 -4,439 -49,533 -34,73 -130,169 -206,206 -57,28 -67,29 -215,32 -86,2 -159,0 -163,-4 z"
       id="path4"
       style="fill:#4a4a4a;fill-opacity:1" />
    <path
       d="m 29675,23836 c -151,-48 -276,-172 -334,-329 l -26,-72 -3,-546 c -4,-645 0,-699 57,-814 52,-105 139,-191 244,-241 85,-40 183,-57 198,-33 5,8 9,89 9,181 v 167 l -42,23 c -23,13 -53,38 -65,57 l -23,34 v 557 557 l 23,34 c 12,18 42,46 65,62 l 42,29 -2,171 -3,172 -50,2 c -27,1 -68,-4 -90,-11 z"
       id="path5"
       style="fill:#4a4a4a;fill-opacity:1" />
    <path
       d="m 29865,23829 c -3,-13 -4,-93 -3,-178 l 3,-155 45,-26 c 67,-39 83,-75 90,-200 l 5,-105 169,-3 c 116,-2 173,1 182,9 19,16 18,191 -1,282 -42,201 -231,379 -419,394 -62,5 -65,5 -71,-18 z"
       id="path6"
       style="fill:#4a4a4a;fill-opacity:1" />
    <path
       d="m 30626,23834 c -10,-26 -7,-1502 4,-1593 22,-196 161,-368 347,-430 70,-24 123,-27 141,-9 13,13 17,325 4,344 -4,6 -21,19 -39,27 -17,9 -42,31 -55,49 l -23,33 -5,795 -5,795 -181,3 c -159,2 -182,0 -188,-14 z"
       id="path7"
       style="fill:#4a4a4a;fill-opacity:1" />
    <path
       d="m 31307,23843 c -4,-3 -7,-360 -7,-793 v -787 l -23,-34 c -12,-19 -42,-44 -65,-57 l -42,-23 v -169 c 0,-138 3,-170 15,-180 25,-21 112,-4 195,36 155,77 269,239 290,414 11,90 15,1557 4,1584 -5,14 -31,16 -183,16 -98,0 -181,-3 -184,-7 z"
       id="path8"
       style="fill:#4a4a4a;fill-opacity:1" />
    <path
       d="m 31936,23834 c -3,-8 -6,-467 -6,-1019 0,-899 2,-1005 16,-1019 13,-13 44,-16 179,-16 152,0 165,1 175,19 7,14 9,346 8,1033 l -3,1013 -181,3 c -159,2 -182,0 -188,-14 z"
       id="path9"
       style="fill:#4a4a4a;fill-opacity:1" />
    <path
       d="m 32620,23413 c 0,-256 -4,-433 -9,-428 -5,6 -53,153 -107,328 -54,175 -103,325 -109,333 -6,9 -18,12 -28,8 -16,-6 -17,-45 -17,-554 v -549 l 116,-373 c 64,-205 121,-379 126,-386 8,-9 57,-12 202,-10 l 191,3 v 1030 1030 l -182,3 -183,2 z"
       id="path10"
       style="fill:#4a4a4a;fill-opacity:1" />
    <path
       d="m 33615,23832 c -165,-58 -305,-212 -346,-382 -17,-71 -17,-279 0,-350 29,-117 110,-245 198,-311 26,-20 92,-60 146,-89 86,-46 102,-51 123,-41 l 24,11 v 184 185 l -46,32 c -65,44 -84,90 -84,207 0,99 9,130 52,169 12,12 35,26 51,32 l 27,11 -2,177 -3,178 -45,2 c -25,2 -68,-5 -95,-15 z"
       id="path11"
       style="fill:#4a4a4a;fill-opacity:1" />
    <path
       d="m 33818,23844 c -5,-4 -8,-85 -8,-180 v -174 l 40,-20 c 21,-11 51,-37 65,-57 22,-34 25,-47 25,-133 0,-61 5,-102 13,-113 11,-16 31,-17 182,-15 l 170,3 3,134 c 3,150 -8,205 -61,305 -70,132 -228,243 -361,253 -33,3 -64,2 -68,-3 z"
       id="path12"
       style="fill:#4a4a4a;fill-opacity:1" />
    <path
       d="m 26185,23668 c -2,-7 -38,-197 -79,-423 l -75,-410 30,-155 c 16,-85 27,-161 24,-167 -3,-8 -24,-13 -55,-13 -62,0 -62,0 -90,-165 -11,-66 -23,-132 -26,-146 -10,-49 14,-59 136,-59 95,0 109,-2 114,-17 2,-10 14,-79 27,-153 12,-74 28,-145 36,-157 13,-22 18,-23 176,-23 173,0 187,4 187,47 0,30 -327,1831 -335,1843 -9,14 -65,12 -70,-2 z"
       id="path13"
       style="fill:#4a4a4a;fill-opacity:1" />
    <path
       d="m 29842,23012 c -9,-7 -12,-50 -10,-183 l 3,-174 80,-5 80,-5 3,-155 c 4,-203 -1,-232 -45,-281 -19,-21 -41,-39 -48,-39 -8,0 -21,-7 -29,-16 -13,-13 -16,-44 -16,-178 0,-113 4,-166 12,-174 31,-31 172,6 267,69 111,74 196,203 220,334 16,85 15,787 -1,803 -14,14 -494,17 -516,4 z"
       id="path14"
       style="fill:#4a4a4a;fill-opacity:1" />
    <path
       d="m 33817,22983 c -4,-3 -7,-91 -7,-194 v -188 l 42,-28 c 74,-50 83,-70 86,-196 3,-104 2,-114 -20,-147 -13,-19 -43,-46 -66,-58 l -42,-24 2,-176 3,-177 h 50 c 174,1 378,182 430,380 20,80 20,310 0,390 -42,159 -146,279 -322,368 -106,54 -141,65 -156,50 z"
       id="path15"
       style="fill:#4a4a4a;fill-opacity:1" />
    <path
       d="m 33259,22488 c -18,-34 -5,-257 20,-339 53,-169 204,-312 371,-349 30,-7 66,-10 80,-9 l 25,4 3,176 2,177 -42,25 c -70,40 -88,84 -88,209 0,68 -4,108 -12,116 -8,8 -63,12 -180,12 -162,0 -168,-1 -179,-22 z"
       id="path16"
       style="fill:#4a4a4a;fill-opacity:1" />
    <path
       d="m 9415,21146 c -70,-31 -82,-61 -144,-377 -27,-139 -149,-747 -271,-1349 -210,-1047 -406,-2018 -785,-3905 -95,-473 -230,-1146 -301,-1495 -95,-477 -126,-644 -120,-672 9,-49 72,-112 128,-127 32,-9 218,-11 693,-9 638,3 651,3 690,24 22,12 48,35 58,52 12,20 71,291 158,724 77,381 189,938 249,1238 60,300 209,1038 330,1640 121,602 236,1174 255,1270 19,96 114,567 210,1045 311,1543 355,1765 355,1796 0,55 -54,126 -113,148 -45,17 -1353,14 -1392,-3 z"
       id="path17"
       style="fill:#4a4a4a;fill-opacity:1" />
    <path
       d="m 13902,21143 c -18,-9 -43,-30 -55,-47 l -22,-31 v -3877 -3877 l 21,-28 c 12,-15 36,-37 55,-48 33,-19 52,-20 709,-20 663,0 676,0 710,21 19,11 45,35 57,54 l 23,33 v 3861 c 0,3656 -1,3863 -18,3896 -9,20 -34,44 -57,57 l -40,23 h -675 c -602,0 -679,-2 -708,-17 z"
       id="path18"
       style="fill:#4a4a4a;fill-opacity:1" />
    <path
       d="m 19446,21137 c -21,-12 -47,-38 -57,-57 -19,-34 -19,-150 -17,-3902 l 3,-3867 21,-28 c 12,-15 36,-37 55,-48 33,-19 52,-20 709,-20 663,0 676,0 710,21 19,11 45,35 57,54 l 23,33 v 3859 c 0,3267 -2,3864 -14,3892 -7,18 -29,44 -47,57 l -34,24 -685,2 -685,3 z"
       id="path19"
       style="fill:#4a4a4a;fill-opacity:1" />
    <path
       d="m 22106,21137 c -21,-12 -47,-38 -57,-57 -19,-34 -19,-150 -17,-3902 l 3,-3867 21,-28 c 12,-15 36,-37 55,-48 33,-19 52,-20 704,-20 652,0 671,1 704,20 19,11 43,33 55,48 l 21,28 3,3857 c 3,4328 10,3919 -72,3967 l -43,25 h -669 -669 z"
       id="path20"
       style="fill:#4a4a4a;fill-opacity:1" />
    <path
       d="m 23861,21138 c -19,-13 -44,-36 -55,-51 -21,-28 -21,-38 -24,-595 -2,-312 0,-591 3,-621 6,-43 14,-61 43,-92 50,-53 90,-59 391,-59 135,0 266,-5 291,-11 148,-34 313,-165 381,-304 l 34,-70 3,-473 c 3,-517 2,-533 -55,-629 -63,-107 -189,-210 -313,-254 -61,-22 -84,-24 -365,-29 -278,-5 -302,-6 -335,-25 -19,-12 -43,-36 -55,-55 -20,-34 -20,-50 -20,-635 0,-584 1,-601 20,-635 12,-21 39,-44 65,-57 42,-22 55,-23 300,-23 184,0 274,-4 323,-15 179,-38 326,-155 404,-320 l 28,-60 v -541 -540 l -37,-75 c -49,-97 -102,-157 -194,-218 -130,-87 -161,-93 -514,-101 -168,-4 -306,-8 -307,-8 -1,-1 -18,-16 -37,-33 -56,-49 -58,-66 -54,-709 3,-557 4,-576 23,-610 12,-19 36,-43 55,-55 33,-19 51,-20 380,-20 373,1 457,8 685,62 402,94 764,305 1064,618 276,289 433,602 497,990 14,81 18,198 21,615 6,623 -4,766 -67,997 -61,222 -202,490 -359,678 l -49,60 42,50 c 176,210 311,471 376,730 51,200 55,266 55,835 0,456 -2,540 -18,638 -65,412 -224,720 -531,1028 -337,338 -696,526 -1176,615 -101,19 -162,22 -500,26 l -385,5 z"
       id="path21"
       style="fill:#4a4a4a;fill-opacity:1" />
    <path
       d="m 27695,21146 c -41,-18 -83,-69 -90,-109 -3,-18 -4,-1762 -3,-3877 l 3,-3845 23,-33 c 51,-70 12,-67 757,-67 658,0 671,0 705,21 19,11 45,35 57,54 l 23,33 v 3859 c 0,3267 -2,3864 -14,3892 -7,18 -29,44 -47,57 l -34,24 -675,2 c -546,2 -681,0 -705,-11 z"
       id="path22"
       style="fill:#4a4a4a;fill-opacity:1" />
    <path
       d="m 29435,21146 c -38,-17 -60,-42 -80,-89 -13,-31 -15,-117 -15,-615 v -578 l 23,-44 c 28,-56 58,-77 128,-90 37,-7 456,-10 1235,-8 l 1179,3 41,23 c 84,48 79,8 79,699 0,602 0,612 -21,639 -11,15 -33,37 -48,48 -27,21 -32,21 -1259,23 -1007,2 -1237,0 -1262,-11 z"
       id="path23"
       style="fill:#4a4a4a;fill-opacity:1" />
    <path
       d="m 33192,21140 c -18,-11 -41,-34 -52,-52 -20,-33 -20,-59 -20,-3896 0,-3528 1,-3867 16,-3898 9,-18 33,-44 53,-56 l 36,-23 h 685 c 641,0 687,1 718,18 18,10 42,32 52,50 20,32 20,81 20,3898 v 3866 l -22,33 c -13,18 -36,43 -51,54 -28,21 -36,21 -715,24 -672,2 -688,2 -720,-18 z"
       id="path24"
       style="fill:#4a4a4a;fill-opacity:1" />
    <path
       d="m 34965,21146 c -16,-7 -38,-23 -48,-34 -45,-50 -46,-66 -46,-667 0,-601 1,-617 46,-667 44,-50 63,-52 463,-58 373,-5 375,-5 425,-29 63,-32 131,-99 158,-159 l 22,-47 v -1305 c 0,-1060 -2,-1312 -13,-1343 -20,-55 -101,-138 -169,-172 l -58,-30 -380,-5 c -425,-6 -422,-5 -467,-77 l -23,-38 v -775 -776 l 216,-359 c 662,-1102 783,-1303 802,-1329 11,-15 38,-37 61,-47 39,-18 81,-19 776,-19 451,0 748,4 769,10 39,11 86,51 107,92 30,57 20,83 -104,288 -112,184 -263,432 -557,915 -123,202 -230,378 -404,664 -44,74 -81,143 -81,153 0,13 28,32 100,68 203,102 334,194 489,344 224,218 399,508 470,780 52,200 52,182 49,1696 -4,1578 1,1473 -80,1715 -94,285 -269,536 -520,751 -305,260 -632,406 -1028,460 -146,19 -931,19 -975,0 z"
       id="path25"
       style="fill:#4a4a4a;fill-opacity:1" />
    <path
       d="m 4098,21128 c -479,-69 -890,-263 -1219,-576 -364,-345 -568,-744 -618,-1204 -8,-65 -11,-782 -11,-2165 0,-1778 2,-2086 15,-2190 53,-426 241,-800 565,-1123 343,-343 761,-547 1280,-625 125,-19 170,-13 216,28 67,58 64,24 64,692 0,644 1,634 -47,678 -11,9 -57,32 -104,50 -46,18 -104,46 -129,62 -68,42 -171,153 -207,221 -68,127 -63,-32 -63,2214 0,1952 1,2038 19,2102 47,171 188,317 376,389 44,17 91,41 103,52 53,49 52,31 52,682 0,666 1,651 -60,695 -48,34 -95,38 -232,18 z"
       id="path26"
       style="fill:#4a4a4a;fill-opacity:1" />
    <path
       d="m 4650,21121 c -19,-10 -45,-33 -57,-51 l -23,-33 v -621 c 0,-587 1,-623 19,-649 25,-39 46,-52 137,-85 136,-50 229,-122 303,-236 82,-125 84,-137 90,-526 5,-253 10,-352 19,-370 7,-14 29,-37 49,-50 l 37,-25 h 692 c 688,0 693,0 721,21 15,12 37,36 48,55 19,32 20,51 19,409 0,340 -2,386 -22,495 -58,320 -166,572 -354,823 -83,111 -279,313 -384,395 -294,230 -639,381 -1024,446 -153,26 -224,27 -270,2 z"
       id="path27"
       style="fill:#4a4a4a;fill-opacity:1" />
    <path
       d="m 11089,20481 c -80,-26 -101,-62 -134,-231 -13,-69 -101,-505 -195,-970 -94,-465 -218,-1077 -275,-1360 -57,-283 -108,-535 -114,-560 -6,-25 -11,-68 -11,-96 0,-28 54,-322 120,-654 88,-436 118,-606 110,-614 -7,-7 -86,-13 -208,-16 -287,-8 -291,-11 -342,-276 -17,-87 -67,-341 -111,-563 -43,-223 -79,-421 -79,-442 0,-49 35,-99 90,-127 44,-22 47,-22 497,-22 h 452 l 10,-37 c 5,-21 48,-236 96,-478 47,-242 97,-498 112,-570 27,-139 38,-167 75,-202 57,-54 45,-53 750,-53 616,0 655,1 694,19 49,22 90,72 99,121 4,25 -67,400 -260,1360 -146,729 -461,2304 -701,3500 -267,1337 -442,2186 -452,2205 -10,16 -32,38 -50,48 -36,21 -133,31 -173,18 z"
       id="path28"
       style="fill:#4a4a4a;fill-opacity:1" />
    <path
       d="m 29457,17936 c -51,-19 -83,-50 -102,-100 -14,-36 -15,-115 -13,-621 l 3,-580 23,-38 c 48,-77 -16,-72 950,-75 570,-2 876,1 902,8 23,6 52,26 74,50 l 36,41 -2,618 -3,619 -25,27 c -59,64 -1,60 -945,62 -712,2 -867,0 -898,-11 z"
       id="path29"
       style="fill:#4a4a4a;fill-opacity:1" />
    <path
       d="m 5227,15966 c -42,-15 -72,-39 -90,-71 -8,-14 -14,-140 -18,-400 -6,-432 -6,-432 -88,-558 -76,-116 -186,-198 -345,-258 -33,-12 -67,-34 -85,-55 l -31,-35 v -622 -622 l 25,-37 c 14,-20 44,-46 70,-58 44,-21 50,-22 143,-10 700,86 1297,465 1640,1040 115,194 194,413 238,665 15,84 18,164 19,505 v 405 l -23,37 c -13,20 -40,47 -60,60 l -37,23 -660,2 c -539,2 -667,0 -698,-11 z"
       id="path30"
       style="fill:#4a4a4a;fill-opacity:1" />
    <path
       d="m 15660,14628 c -26,-14 -53,-37 -65,-58 -19,-34 -20,-51 -20,-640 v -605 l 23,-36 c 12,-20 39,-45 60,-55 35,-18 89,-19 1267,-19 1212,0 1230,0 1264,20 19,11 43,33 55,48 21,28 21,37 24,625 2,389 -1,609 -7,632 -13,43 -53,83 -100,99 -25,8 -368,11 -1245,11 h -1212 z"
       id="path31"
       style="fill:#4a4a4a;fill-opacity:1" />
    <path
       d="m 29445,14635 c -46,-16 -81,-55 -95,-105 -15,-53 -12,-1166 3,-1208 20,-54 62,-89 120,-102 37,-8 389,-10 1247,-8 1178,3 1195,3 1230,23 21,12 44,39 58,65 l 22,44 v 586 586 l -22,44 c -17,33 -35,51 -68,68 l -44,22 h -1206 c -1013,-1 -1211,-3 -1245,-15 z"
       id="path32"
       style="fill:#4a4a4a;fill-opacity:1" />
    <path
       d="m 12284.084,12570.15 c -33.15,-7.293 -246.634,-9.282 -257.242,-2.652 -3.978,1.989 -9.282,0.663 -11.271,-3.315 -3.315,-4.641 -13.923,-5.304 -27.846,-2.652 -13.26,1.989 -155.141,3.978 -316.249,3.315 -345.421,-1.326 -289.067,-1.326 -454.816,-0.663 -74.918,0 -174.368,0 -222.104,-0.663 -47.072,0 -163.76,0 -258.568,0.663 -94.809,1.326 -175.031,1.326 -179.009,0.663 -3.315,-0.663 -41.106,-0.663 -82.875,0 -41.768,0.663 -82.211,1.326 -89.504,1.326 -7.293,-0.663 -37.128,-0.663 -66.3,-0.663 -29.172,0.663 -57.681,0.663 -62.985,0 -5.303,0 -44.42,0 -86.189,0.663 -41.769,0 -95.471,0 -119.339,0 -39.117,-0.663 -137.9036,-0.663 -348.0734,-0.663 -39.7798,0 -110.0574,0 -155.8042,0 -45.7467,-0.663 -131.9363,0 -192.2689,0 -60.3327,0.663 -128.6213,0.663 -152.4892,0 -23.8679,-0.663 -149.1742,-0.663 -278.4584,0 -129.2843,0 -297.6854,0 -374.593,-0.663 -124.6433,0 -1575.2793,-0.663 -1624.341,-0.663 -10.608,0 -153.8152,0 -318.2383,0 -163.7601,0 -360.67,0 -437.5775,0.663 -123.3174,0.663 -1415.4972,1.326 -1710.5306,0.663 -61.6587,0 -218.7888,0 -348.7361,0.663 -129.9473,0.663 -239.3417,-1.326 -243.3196,-3.978 -4.641,-2.652 -11.271,-2.652 -15.912,0 -3.9779,2.652 -115.3613,3.978 -246.6346,3.315 -282.4364,-1.989 -233.3747,-1.989 -408.4057,-0.663 -78.2336,0.663 -175.0311,1.326 -215.4738,1.326 -39.7798,0 -375.919,0 -746.5339,0 -370.615,0.663 -676.9193,-1.326 -680.2343,-3.315 -3.978,-2.652 -14.5859,-2.652 -23.2048,0.663 -7.956,2.652 -61.6587,4.641 -118.0134,3.978 -88.1785,-0.663 -108.0684,-2.652 -139.2292,-14.586 -19.8899,-7.956 -42.4318,-14.586 -49.7248,-14.586 -7.9559,0 -17.2379,-3.315 -21.2158,-7.293 -3.315,-3.315 -13.923,-7.293 -22.5419,-8.619 -8.619,-1.326 -20.5529,-3.978 -25.8569,-5.967 -5.3039,-1.989 -24.5308,-7.956 -43.0947,-13.26 -17.9009,-5.304 -41.7688,-13.26 -53.0397,-17.238 -10.608,-3.978 -51.0508,-15.912 -89.50455,-27.183 -38.45378,-11.934 -80.22255,-25.194 -92.81948,-29.835 -29.17184,-11.271 -121.99133,-45.083 -152.48916,-55.691 -12.59693,-4.641 -31.82383,-10.608 -43.09476,-13.923 -29.17184,-7.956 -103.42743,-37.128 -143.20721,-56.355 -19.2269,-9.282 -37.7908,-16.575 -41.76877,-16.575 -11.93394,0 -114.03537,-41.769 -179.67201,-74.256 -92.15649,-45.083 -139.89223,-72.929 -165.08609,-97.46 -11.27094,-11.271 -24.53087,-20.553 -28.50884,-20.553 -12.59693,0 -64.31065,-62.322 -84.863536,-102.764 C 18.651985,11958.204 16,11945.607 16,11899.197 c 0,-41.769 3.314982,-59.669 14.58592,-81.548 7.955956,-15.249 14.585919,-31.824 14.585919,-37.128 0,-11.934 62.984651,-74.919 94.145481,-94.809 13.25993,-8.619 34.47581,-17.238 46.40974,-19.227 11.93394,-1.988 40.44278,-8.618 62.98466,-13.922 22.54187,-5.304 59.66967,-9.282 82.87454,-8.619 49.72472,1.989 305.64131,-5.967 376.58192,-11.271 27.18285,-2.652 68.95162,-5.304 92.81949,-6.63 39.77978,-2.652 104.75342,-9.945 169.06407,-19.227 14.58592,-1.989 63.64766,-7.956 109.39436,-13.923 45.7468,-5.304 96.7975,-12.597 114.0354,-16.575 17.2379,-3.978 33.8128,-5.304 37.7908,-3.315 3.315,1.989 18.5639,-1.326 34.4758,-7.293 15.9119,-5.967 45.7468,-12.597 65.6366,-15.249 62.3217,-8.619 114.6984,-20.553 149.1742,-34.476 18.5639,-7.293 48.3988,-15.912 66.2997,-17.901 18.5639,-2.652 51.0507,-12.597 72.9296,-21.878 21.8788,-9.282 61.6586,-23.868 87.5155,-31.824 57.0177,-17.238 200.8879,-91.494 303.6523,-156.467 68.9516,-43.758 195.5839,-155.142 195.5839,-172.379 0,-3.978 6.63,-12.597 13.9229,-19.89 17.9009,-15.912 57.0177,-75.582 77.5706,-118.677 8.619,-17.901 19.8899,-41.105 24.5309,-50.387 11.9339,-21.879 43.7577,-139.893 47.0727,-175.031 11.271,-111.384 12.5969,-154.479 7.956,-212.159 -3.315,-36.465 -6.63,-86.853 -7.293,-112.71 -1.326,-25.194 -5.967,-53.039 -10.6079,-61.658 -4.641,-8.619 -6.63,-23.868 -3.978,-34.476 2.652,-10.608 0.663,-25.857 -3.978,-34.476 -4.641,-8.619 -10.6079,-34.476 -13.2599,-58.344 -10.608,-82.874 -34.4758,-206.191 -48.3987,-247.2973 -5.304,-15.9119 -7.956,-35.1388 -6.63,-42.4317 1.989,-7.956 -1.326,-23.2049 -7.293,-35.1388 -5.9669,-11.271 -11.9339,-35.1388 -13.2599,-52.3767 -1.326,-17.2379 -9.9449,-49.7248 -19.2269,-72.2666 -9.2819,-22.5419 -17.2379,-49.0618 -17.2379,-59.0067 0,-9.945 -6.63,-31.8238 -13.9229,-48.3987 -7.293,-16.575 -14.5859,-41.7688 -15.9119,-56.3547 -1.989,-25.8569 -14.586,-73.5926 -46.4098,-175.6941 -7.9559,-27.1828 -18.5639,-66.9626 -23.2048,-88.8415 -4.641,-21.2159 -13.26,-51.0507 -20.5529,-66.2996 -6.63,-14.5859 -12.597,-35.8018 -12.597,-45.7468 0,-10.6079 -9.2819,-39.1167 -19.8899,-64.3106 -11.2709,-25.1939 -19.8898,-51.0507 -19.8898,-57.6807 0,-7.2929 -10.608,-41.7688 -23.2049,-77.5706 -12.5969,-35.8018 -23.2049,-70.2776 -23.2049,-76.9075 0,-6.63 -7.2929,-28.5089 -16.5749,-48.3988 -8.619,-20.5529 -17.9009,-45.7467 -19.8899,-55.6917 -7.2929,-43.7577 -12.5969,-59.6696 -31.1608,-100.7754 -10.608,-23.8679 -21.2159,-57.0177 -23.2049,-73.5926 -1.989,-16.5749 -5.967,-32.4868 -8.6189,-36.4648 -2.652,-3.315 -10.608,-25.8569 -18.5639,-49.7247 -7.293,-23.8679 -19.8899,-62.3217 -27.8459,-86.1895 -7.9559,-23.8679 -21.8789,-65.6367 -30.4978,-92.8195 -7.956,-27.1829 -23.8679,-74.9186 -34.4758,-106.0794 -10.608,-31.1609 -22.5419,-68.2887 -26.5199,-82.8746 -3.315,-14.5859 -12.5969,-41.1058 -19.8899,-59.6697 -7.2929,-17.9009 -27.1828,-77.5705 -44.4207,-132.5992 -17.2379,-54.3657 -35.8018,-112.7094 -41.1058,-129.2843 -5.967,-16.5749 -18.5639,-56.3547 -28.5088,-89.5045 -10.608,-32.4868 -24.5309,-76.2446 -31.8239,-96.1345 -7.2929,-19.8899 -15.9119,-48.3987 -18.5639,-62.9846 -2.6519,-14.586 -10.6079,-39.7798 -17.2379,-56.3547 -7.2929,-16.5749 -15.2489,-41.7688 -18.5639,-56.3547 -3.3149,-14.5859 -13.2599,-47.0728 -22.5418,-71.6036 -9.282,-24.5309 -17.2379,-51.7137 -17.2379,-60.3327 0,-8.6189 -9.282,-35.1388 -20.5529,-59.0067 -10.608,-23.8678 -21.2159,-55.0287 -22.5419,-68.9516 -1.326,-13.9229 -8.619,-41.7688 -16.5749,-61.6586 -7.956,-19.8899 -17.2379,-52.3768 -21.2159,-72.9296 -3.315,-19.8899 -10.6079,-43.7578 -15.2489,-53.7028 -5.304,-9.2819 -10.608,-24.5308 -12.5969,-33.1498 -6.63,-35.1388 -19.8899,-83.5375 -30.4979,-108.7314 -5.9669,-14.5859 -11.2709,-37.7908 -12.5969,-52.3767 -0.663,-13.9229 -8.619,-43.7577 -17.2379,-65.6366 -9.282,-21.8789 -16.5749,-49.0617 -16.5749,-60.3327 0,-11.2709 -5.967,-33.1498 -13.2599,-48.3987 -6.63,-15.2489 -14.586,-41.7688 -17.238,-59.6697 -2.6519,-17.2379 -9.9449,-43.0947 -16.5749,-58.3437 -6.6299,-14.5859 -15.2489,-44.4207 -18.5639,-66.2996 -3.9779,-21.8789 -13.2599,-64.9736 -20.5528,-96.1345 -7.293,-31.1608 -15.912,-71.6036 -19.2269,-90.1675 -3.315,-19.2269 -11.271,-50.3877 -16.5749,-69.6146 -5.967,-19.2269 -10.608,-45.7467 -10.608,-58.3437 -0.663,-13.2599 -4.641,-31.1608 -9.9449,-40.4427 -5.304,-9.282 -9.282,-25.1939 -9.945,-36.4648 0,-18.5639 -8.6189,-61.6587 -30.4978,-151.1632 -5.304,-21.2159 -7.956,-41.1058 -6.63,-43.7578 1.989,-2.652 -2.652,-33.1498 -9.9449,-67.6256 -12.597,-60.3327 -25.1939,-147.1852 -29.8349,-201.5509 -0.663,-14.5859 -6.6299,-64.9736 -11.9339,-112.7094 -9.2819,-74.9185 -13.2599,-139.8922 -20.5529,-308.2933 -2.652,-72.2666 9.945,-139.2292 38.4538,-205.5288 14.5859,-34.4758 35.1388,-71.6036 45.7468,-82.2116 9.9449,-9.9449 18.5639,-22.5418 18.5639,-27.8458 0,-4.641 17.2379,-22.5419 37.7907,-40.4428 20.5529,-17.2379 49.7248,-43.0948 64.3107,-57.6807 60.9957,-57.6807 311.6083,-200.2249 422.9917,-240.6676 25.8568,-9.282 74.9185,-29.8349 109.3944,-45.7468 33.8128,-15.9119 65.6366,-29.1718 70.2776,-29.1718 9.9449,-0.663 72.2666,-21.2159 107.4054,-36.4648 22.5419,-9.945 53.7027,-11.934 202.2139,-14.586 179.009,-2.6519 208.1808,-5.9669 215.4738,-28.5088 1.989,-6.63 11.9339,-20.5529 21.8788,-31.8238 9.945,-11.271 28.5089,-35.8018 41.1058,-54.3657 21.2159,-31.8238 60.3327,-81.5486 91.4935,-116.6874 11.934,-13.9229 13.9229,-13.9229 430.2846,-13.2599 230.0598,0.663 421.0027,2.652 422.9917,5.304 2.652,2.652 9.945,1.989 15.9119,-0.663 7.293,-3.978 839.3534,-9.282 1160.9066,-7.956 5.304,0 272.4915,0 593.3817,0 320.8903,0 589.4038,0 596.6967,0 7.293,0 92.1565,-0.663 188.954,-0.663 96.7975,0 180.998,0 187.628,0.663 19.2269,1.326 156.4671,1.989 253.2646,0.663 166.4121,-1.326 226.7447,15.9119 263.2095,75.5816 9.282,15.2489 37.7908,60.9957 63.6477,102.7644 l 46.4097,75.5816 -12.5969,28.5089 c -11.934,26.5198 -25.8569,51.7137 -82.8746,150.5001 -43.7577,74.9186 -53.7027,93.4825 -88.1785,160.4451 -17.9009,36.4648 -48.3987,91.4935 -66.9626,121.9914 -17.9009,30.4978 -33.1498,59.6696 -33.1498,63.6476 0,4.641 -4.641,11.9339 -10.608,16.5749 -5.3039,5.304 -14.5859,17.9009 -19.2269,29.1719 -9.2819,19.8899 -13.2599,26.5198 -37.1278,63.6476 -5.9669,9.282 -30.4978,53.7027 -53.7027,99.4495 -42.4317,81.5485 -68.9516,129.9472 -92.1564,169.064 -6.63,11.271 -22.5419,41.1058 -35.8018,67.6257 -27.1829,54.3657 -29.1719,92.1564 -12.597,187.6279 5.967,31.1608 11.271,68.2886 12.597,82.8746 3.9779,41.1057 16.5749,123.9803 19.8898,129.2843 1.989,2.6519 4.641,19.2268 7.293,37.1277 1.989,17.9009 6.63,55.0287 10.6079,82.2116 3.315,27.1828 7.293,62.9846 7.956,79.5596 1.326,16.5749 5.967,42.4317 9.9449,58.3436 4.641,15.2489 6.63,30.4979 4.641,33.1498 -1.989,3.315 -0.663,17.238 3.315,31.8239 3.315,13.9229 11.9339,73.5926 19.2269,131.9362 17.9009,146.5222 25.1939,190.943 33.1498,212.8219 3.978,9.9449 5.967,24.5308 3.978,32.4868 -1.989,7.293 0,25.1939 3.315,39.7798 3.9779,14.5859 11.2709,59.6696 15.9119,99.4494 9.2819,70.2776 22.5419,171.7161 37.1278,275.1435 12.5969,95.4715 19.2269,149.1742 19.2269,165.7491 0,8.6189 4.6409,30.4978 10.6079,47.7357 5.304,17.2379 8.619,37.7908 5.967,44.4208 -1.989,7.2929 0,20.5529 3.978,28.5088 4.6409,8.619 12.5969,49.7247 17.2379,91.4935 4.6409,41.7688 11.9339,97.4605 15.2489,122.6543 3.978,25.8569 8.6189,63.6477 9.9449,84.8636 1.326,20.5529 4.641,41.7687 7.956,46.4097 2.652,3.978 7.2929,24.5309 9.2819,44.4208 2.652,19.8899 7.956,48.3987 11.934,62.9846 14.5859,57.6807 26.5198,118.6764 23.2048,123.3173 -1.989,3.315 0,17.9009 3.978,33.1499 8.619,30.4978 27.1829,149.8371 24.5309,157.1301 -0.663,2.652 1.989,16.5749 6.6299,31.1608 7.293,26.5199 17.9009,76.9076 28.5089,137.9033 3.315,17.2379 11.9339,48.3987 19.2269,68.2886 7.9559,19.8899 13.9229,45.7467 13.9229,57.6807 0.663,11.9339 4.641,28.5088 9.9449,37.7908 5.304,9.2819 9.282,28.5088 9.945,43.7577 0,14.5859 5.967,44.4208 13.9229,66.2997 7.293,21.2158 15.9119,52.3767 19.2269,68.9516 10.6079,55.0287 43.7578,162.4341 64.3107,205.5288 10.6079,23.8679 21.8788,56.3547 24.5308,72.2666 5.304,33.8129 45.0838,114.6984 112.7094,228.7338 34.4758,58.3437 61.6587,94.1455 101.4384,133.9252 59.0067,59.6697 85.5266,78.2336 141.2183,100.1125 84.8635,31.8238 53.7027,30.4978 825.4304,33.1498 401.1128,1.326 733.937,1.989 739.2409,1.989 64.9737,0.663 111.3834,1.326 119.3394,0.663 13.2599,-0.663 1916.7226,-1.326 1929.3196,-0.663 27.183,1.326 26.52,9.9449 -7.293,89.5045 -36.465,85.5265 -68.952,158.4561 -79.56,177.02 -5.967,11.934 -22.542,54.3657 -32.487,86.8525 -3.315,10.608 -12.597,64.3107 -20.553,119.3394 -13.922,91.4935 -15.248,123.3173 -14.585,346.0842 0.663,171.716 3.978,273.817 11.271,341.443 5.966,53.04 9.281,100.112 7.292,104.09 -1.326,4.641 1.326,19.89 6.63,34.476 5.967,17.901 6.63,27.846 1.989,32.487 -4.641,4.641 -3.978,17.901 3.315,42.432 13.923,49.062 30.498,123.98 33.15,147.848 1.326,11.271 11.934,41.106 22.542,66.3 23.868,53.702 28.509,68.951 31.824,97.46 7.293,55.029 228.071,430.948 267.187,454.153 7.956,4.641 26.52,25.856 41.769,46.409 15.912,21.216 31.824,39.78 35.139,41.106 3.978,1.326 16.575,11.934 27.183,23.205 11.271,11.934 31.824,29.835 46.41,40.443 13.923,11.271 36.464,31.161 48.398,45.084 12.597,13.259 29.835,26.519 39.117,28.508 8.619,2.652 19.89,9.945 25.194,17.901 8.619,12.597 20.553,20.553 76.245,54.366 11.934,7.293 31.823,21.216 43.094,31.824 11.934,9.945 25.857,17.901 31.161,17.901 5.304,0 11.934,2.652 15.912,5.967 15.249,15.249 286.414,152.489 301.663,153.152 5.304,0 12.597,2.652 16.575,5.967 3.315,2.652 41.769,19.227 85.527,36.465 43.758,17.237 96.797,39.779 117.35,50.387 70.278,35.139 66.3,35.139 426.307,37.791 186.302,1.326 342.769,1.989 348.073,1.989 5.304,0 688.853,-1.326 1518.262,-3.315 829.408,-1.326 1512.957,-2.652 1518.261,-2.652 5.304,0 74.256,0 152.489,0.663 78.234,0 149.838,0 159.119,0 9.282,-0.663 534.376,0 1166.874,1.326 768.413,1.326 1162.896,4.641 1187.426,9.282 62.322,11.934 145.197,59.67 145.197,84.201 0,5.304 5.967,12.596 12.597,16.574 7.293,3.315 50.387,68.289 95.471,144.534 111.383,186.302 118.013,198.899 112.046,202.877 -3.315,1.989 -56.354,3.315 -118.013,2.652 -61.659,0 -120.002,1.989 -129.947,4.641 -10.608,2.652 -18.564,1.989 -18.564,-0.663 0,-3.315 -63.648,-5.304 -140.555,-4.641 -77.571,0.663 -275.144,1.326 -439.567,1.326 -163.76,0 -334.15,0 -377.908,0.663 -43.758,0 -127.295,0 -185.639,-0.663 -58.343,0 -156.467,0 -218.789,0 -61.658,0 -153.152,0 -202.213,0 -49.062,0 -132.6,0.663 -185.639,1.326 -53.04,0.663 -103.428,1.326 -112.71,0.663 -19.89,-0.663 -499.899,-1.989 -855.265,-1.989 -140.555,0 -262.547,0 -271.829,-0.663 -20.552,-0.663 -124.643,0.663 -195.584,1.989 -66.299,1.326 -149.837,1.326 -530.397,-1.326 -110.057,-0.663 -619.901,0.663 -689.516,1.326 -21.879,0.663 -112.709,0.663 -202.214,0.663 -89.504,0 -173.042,0 -185.639,0 -12.597,0.663 -78.233,0.663 -145.859,0 -67.625,-0.663 -169.064,-0.663 -225.419,-1.326 -56.354,0 -119.339,0 -139.229,-0.663 -66.299,-0.663 -407.743,0 -424.317,0.663 -9.282,0.663 -20.553,0.663 -24.531,0.663 -4.641,-0.663 -12.597,-0.663 -16.575,-0.663 -4.641,0 -94.809,1.326 -200.888,2.652 -105.417,1.326 -200.888,3.978 -212.159,5.966 -10.608,1.989 -33.15,0.663 -49.725,-3.314 z m -9722.841,-398.461 c 284.4254,0 533.712,0.663 553.6019,1.326 72.2666,1.326 251.2756,-4.641 257.9056,-9.282 3.978,-1.989 7.2929,-10.608 7.2929,-17.901 0,-20.553 -43.7577,-138.566 -76.9075,-206.192 -15.912,-33.15 -29.1719,-66.3 -29.1719,-74.919 0,-13.26 -11.2709,-40.442 -54.3657,-135.251 -7.2929,-16.575 -18.5639,-47.736 -25.1938,-69.614 -6.63,-21.879 -23.8679,-68.289 -39.1168,-102.765 -14.5859,-34.476 -27.1829,-68.289 -27.1829,-74.918 0,-5.967 -14.5859,-47.073 -33.1498,-90.831 -17.9009,-43.758 -33.1498,-84.864 -33.1498,-91.493 0,-6.63 -2.652,-14.586 -5.967,-17.901 -3.315,-3.978 -11.9339,-23.205 -19.2269,-43.095 -7.9559,-19.89 -21.2159,-54.366 -30.4978,-76.245 -9.2819,-21.879 -17.9009,-49.061 -19.8899,-60.332 -1.989,-11.271 -14.5859,-43.758 -27.8458,-72.267 -12.597,-29.172 -27.1829,-67.626 -32.4869,-85.527 -4.6409,-18.563 -19.2269,-57.68 -31.8238,-87.515 -13.2599,-29.172 -27.1828,-67.626 -31.1608,-86.19 -9.945,-47.735 -66.9626,-156.467 -76.9076,-147.848 -4.641,3.978 -9.9449,35.802 -12.5969,77.571 -4.641,70.277 -16.5749,149.174 -31.8238,206.855 -3.978,16.575 -7.956,31.161 -8.619,33.15 0,1.988 -2.652,15.248 -5.967,29.834 -2.6519,14.586 -16.5749,51.714 -30.4978,82.212 -14.5859,30.498 -25.8568,59.007 -25.8568,62.985 -0.663,11.933 -34.4759,76.907 -61.6587,116.687 -42.4318,62.985 -46.4098,68.952 -64.9736,89.504 -9.282,11.271 -19.8899,25.194 -23.2049,31.161 -9.282,16.575 -62.9847,78.897 -88.1785,101.439 -11.934,10.608 -49.7248,45.083 -82.8746,74.918 -33.1498,30.498 -70.9406,61.659 -83.5375,68.289 -12.5969,7.293 -49.7247,29.835 -82.8746,49.725 -89.5045,55.691 -239.3416,131.936 -291.7183,148.511 -25.1939,7.956 -58.3437,19.89 -73.5926,26.52 -14.586,6.63 -43.0948,17.238 -62.9847,23.205 -70.9406,21.878 -182.324,55.691 -218.1258,66.299 -19.8899,5.967 -51.0507,12.597 -69.6146,14.586 -17.9009,1.989 -36.4648,6.63 -40.4428,9.282 -8.6189,6.63 -109.3944,25.857 -137.9032,25.857 -10.608,0 -34.4758,3.978 -53.0397,9.282 -35.1388,9.945 -151.8262,25.194 -202.8769,26.52 -34.47582,0.663 -68.28864,19.227 -64.97365,35.138 1.32599,6.63 17.2379,15.249 41.76875,21.879 21.8789,6.63 56.3547,17.901 76.2446,25.194 19.8899,7.293 59.0067,19.89 86.1895,27.846 27.1829,8.619 60.3327,18.564 72.9296,23.205 12.5969,4.641 24.5309,8.619 26.5199,7.956 4.6409,-0.663 73.5926,21.879 89.5045,28.509 7.2929,3.978 146.5222,5.967 318.9012,4.641 167.7381,-0.663 313.5973,0.663 324.8682,2.652 10.608,2.652 23.8679,2.652 29.1719,0.663 5.3039,-1.989 242.6566,-3.315 527.0821,-3.315 z m 7256.4949,-4.641 c 5.304,0 102.7644,0 215.4741,0 113.372,0 224.755,0.663 248.623,0.663 215.474,2.652 867.863,0.663 873.167,-2.652 3.978,-2.652 12.596,-2.652 18.563,-0.663 19.227,7.956 8.619,-19.227 -11.934,-29.172 -9.944,-4.641 -21.215,-14.586 -24.53,-21.879 -3.978,-6.63 -11.934,-12.597 -18.564,-12.597 -5.967,0 -33.15,-17.901 -59.67,-39.78 -27.183,-21.879 -51.051,-39.779 -54.366,-39.779 -2.652,0 -23.205,-16.575 -45.746,-36.465 -22.542,-19.89 -43.758,-36.465 -46.41,-36.465 -3.315,0 -17.901,-11.271 -31.824,-24.531 -14.586,-13.923 -35.139,-33.15 -45.747,-43.095 -46.409,-42.431 -115.361,-117.35 -133.925,-144.533 -11.271,-16.575 -35.139,-43.758 -52.377,-60.996 -17.238,-17.237 -47.735,-57.68 -67.625,-89.504 -19.89,-31.824 -45.747,-72.93 -57.018,-91.494 -27.846,-43.094 -119.339,-212.821 -135.914,-252.601 -7.956,-17.238 -15.249,-41.106 -17.238,-52.377 -1.989,-11.934 -16.575,-51.714 -32.487,-88.841 -16.575,-36.465 -29.835,-74.256 -29.835,-83.538 0,-9.282 -6.63,-29.835 -13.923,-45.084 -7.956,-15.249 -16.575,-43.757 -19.89,-64.31 -2.652,-19.89 -11.271,-62.985 -19.227,-96.135 -7.292,-32.487 -14.585,-87.515 -16.574,-121.328 -1.326,-34.476 -5.967,-71.604 -9.282,-82.875 -8.619,-27.183 -17.901,-172.379 -23.868,-379.234 -1.989,-61.658 -3.978,-117.35 -4.641,-122.654 0,-5.304 1.989,-39.78 4.641,-76.244 2.652,-36.4653 5.967,-100.7759 7.293,-142.5447 1.326,-41.7688 3.978,-90.1675 5.967,-106.7424 2.652,-25.1939 1.326,-32.4868 -10.608,-43.0948 -13.923,-12.5969 -45.084,-12.5969 -1490.416,-13.2599 -1555.3894,-1.326 -1516.2726,-0.663 -1611.0811,-28.5088 -11.934,-3.978 -23.8679,-5.967 -26.5199,-5.967 -7.2929,1.989 -76.2446,-22.5419 -116.6873,-41.7688 -102.1015,-49.0617 -208.1809,-127.9583 -255.2536,-188.2909 -13.923,-18.5639 -34.4758,-39.7798 -44.4208,-47.0728 -17.2379,-12.5969 -34.4758,-37.7908 -110.0574,-161.7711 -38.4538,-62.3216 -117.3503,-218.7888 -117.3503,-232.0487 0,-6.63 -13.26,-42.4318 -29.8349,-80.2225 -15.9119,-37.7908 -29.8348,-74.2556 -29.8348,-80.8856 0,-6.63 -7.293,-33.8128 -15.9119,-59.6697 -8.619,-26.5198 -21.2159,-66.9626 -27.1829,-90.8305 -12.5969,-50.3877 -32.4868,-120.6653 -49.7247,-172.379 -5.967,-19.8899 -11.9339,-49.0617 -11.9339,-64.3107 -0.663,-15.2489 -5.304,-36.4648 -10.608,-47.7357 -5.9669,-10.6079 -10.6079,-29.1718 -10.6079,-40.4428 0,-11.2709 -4.641,-31.1608 -10.6079,-45.0837 -5.967,-13.26 -13.26,-41.1058 -16.575,-60.9957 -2.6519,-19.8899 -9.9449,-60.3327 -15.9119,-89.5045 -5.9669,-29.1718 -13.2599,-70.9406 -16.5749,-92.8195 -3.315,-21.8789 -10.6079,-63.6476 -16.5749,-92.8195 -5.967,-29.1718 -12.5969,-72.2666 -15.2489,-96.1344 -3.315,-23.8679 -9.2819,-50.3878 -13.9229,-59.0067 -4.641,-7.956 -6.63,-21.2159 -5.304,-28.5089 1.989,-7.2929 -0.663,-27.8458 -5.967,-45.7467 -5.3039,-17.9009 -7.9559,-35.8018 -5.9669,-39.1168 1.989,-3.315 0.663,-17.9009 -3.315,-31.1608 -3.978,-13.9229 -10.608,-45.7468 -13.9229,-71.6036 -3.315,-25.1939 -8.619,-62.9847 -11.934,-82.8746 -11.9339,-69.6146 -21.2158,-129.2843 -27.1828,-172.379 -3.315,-23.8679 -9.282,-62.3217 -13.9229,-86.1895 -3.978,-23.8679 -7.956,-53.0397 -9.282,-64.9737 -1.326,-11.9339 -3.978,-33.1498 -7.2929,-46.4097 -2.652,-13.26 -5.304,-33.1498 -5.967,-44.4208 -3.978,-49.7247 -17.9009,-149.1742 -26.5199,-191.6059 -5.3039,-25.8569 -9.2819,-55.6917 -9.2819,-66.9627 0.663,-10.6079 -5.304,-57.0176 -13.2599,-102.7644 -7.293,-45.7467 -16.575,-109.3944 -20.5529,-142.5442 -7.293,-64.9736 -9.282,-81.5486 -20.5529,-155.8041 -3.978,-27.1829 -9.945,-67.6257 -13.2599,-89.5045 -2.652,-21.8789 -8.619,-57.6807 -12.597,-79.5596 -3.315,-21.8789 -10.6079,-76.9076 -16.5749,-122.6543 -9.2819,-78.8966 -15.9119,-126.6323 -29.8348,-215.4738 -19.8899,-121.9914 -41.7688,-287.7405 -42.4318,-321.5533 -0.663,-16.5749 -3.315,-33.8128 -5.967,-37.7908 -2.6519,-4.6409 -6.6299,-27.8458 -8.6189,-51.7137 -1.989,-24.5308 -5.967,-51.0507 -9.282,-59.0066 -7.9559,-21.2159 3.315,-72.9296 23.2049,-101.4385 9.282,-13.9229 16.5749,-27.1828 16.5749,-30.4978 0,-2.652 11.271,-22.5419 24.5309,-43.0948 13.2599,-20.5529 39.7798,-69.6146 59.6697,-108.7314 19.2269,-39.1168 38.4538,-72.9296 42.4317,-74.9186 3.978,-2.652 12.597,-17.2379 19.8899,-32.4868 6.63,-14.5859 21.2159,-41.7688 32.4868,-60.3327 11.271,-17.9009 21.8789,-37.7907 24.5309,-43.0947 1.989,-5.304 9.282,-15.9119 15.2489,-23.2049 6.63,-7.293 13.2599,-25.8568 15.9119,-41.1058 5.304,-34.4758 -5.9669,-42.4317 -57.0177,-41.7687 -92.1564,0.663 -133.2622,0.663 -295.6963,0 -95.4715,-0.663 -179.672,1.326 -186.965,3.3149 -7.2929,1.989 -16.5749,1.989 -20.5529,0 -3.978,-2.6519 -139.8922,-3.9779 -302.9893,-3.3149 -163.0971,0.663 -315.5863,0.663 -339.4541,0.663 -49.0618,-0.663 -180.335,-1.326 -417.6877,-1.326 -265.8616,0 -282.4365,0 -430.9476,-0.663 -78.2336,0 -147.1852,0 -152.4892,0 -36.4648,1.989 -97.4605,1.989 -102.7644,1.326 -3.315,-0.663 -9.282,-0.663 -13.26,0 -3.3149,0.663 -30.4978,0.663 -59.6696,0 -29.1719,-0.663 -185.639,-0.663 -348.0731,-0.663 -162.4341,0.663 -344.0951,0.663 -404.4278,0 -571.5028,-0.663 -851.2873,1.326 -882.4481,7.2929 -19.8899,3.978 -60.9957,18.5639 -90.8305,33.1498 -30.4978,14.586 -60.3327,26.5199 -66.2996,26.5199 -19.2269,0 -107.4055,41.7688 -210.1699,98.7865 -131.9363,73.5925 -198.2359,118.6763 -220.1148,150.5001 -17.9009,25.1939 -18.5639,27.8459 -16.5749,102.1015 1.326,41.7687 5.304,79.5595 8.619,82.8745 4.6409,4.641 184.9759,5.967 521.7781,5.304 283.0994,-1.326 550.95,-1.989 594.7077,-1.326 43.7578,0.663 128.6213,0.663 188.954,0 60.3326,0 116.0243,-0.663 124.6433,0 27.8458,0 44.4207,0 123.9803,0 43.7578,0 474.7054,1.326 958.0297,2.652 483.3243,1.989 987.2016,3.3149 1120.4638,3.9779 133.2623,0 249.9496,1.989 259.2316,3.315 26.5198,4.641 39.1168,35.1388 49.7247,120.6654 5.304,42.4317 16.5749,122.6543 25.8569,177.02 9.2819,55.0287 18.5639,112.7094 19.8899,129.2843 1.326,16.5749 7.2929,42.4317 12.5969,57.6807 5.304,15.9119 7.293,29.8348 3.978,31.8238 -3.315,1.989 -1.326,15.9119 3.978,31.1608 4.6409,14.5859 9.2819,37.7908 9.2819,51.7137 0,13.2599 3.315,33.1498 6.63,43.7578 3.9779,10.6079 7.9559,32.4868 9.2819,49.0617 7.956,77.5706 15.9119,130.6103 21.8789,142.5442 3.978,7.293 8.6189,34.4758 10.6079,59.6697 3.978,41.7688 9.945,74.2556 31.8239,176.357 3.9779,17.2379 7.9559,45.7468 9.2819,62.9847 1.326,17.9009 5.304,51.7137 9.282,75.5816 3.9779,23.8678 9.9449,62.3216 13.2599,86.1895 3.315,23.8678 9.2819,51.7137 13.2599,62.3216 4.641,10.608 5.967,27.8459 3.978,37.7908 -2.652,10.608 -1.326,28.5089 1.989,40.4428 12.5969,41.1058 27.8458,119.3393 24.5308,124.6433 -1.9889,3.315 0,13.9229 3.978,24.5309 3.978,9.9449 7.956,31.8238 9.945,48.3987 2.652,36.4648 19.2269,143.2072 29.1718,192.269 3.978,19.8898 9.945,59.0066 13.9229,86.1895 3.315,27.1828 8.619,66.2996 12.597,86.1895 3.3149,19.8899 8.6189,54.3657 11.9339,76.9076 3.315,22.5419 9.9449,51.0507 13.9229,63.6476 3.978,12.597 6.63,28.5089 5.967,35.8018 -1.989,15.9119 5.304,65.6367 18.5639,126.6323 5.9669,25.8569 8.6189,50.3878 6.6299,54.3657 -2.6519,3.315 0,19.2269 5.967,35.1388 5.304,15.9119 9.282,37.7908 9.282,49.0618 -0.663,25.1938 18.5639,125.3063 27.1828,141.8812 3.978,7.2929 6.63,17.2379 5.304,21.8789 -0.663,3.9779 1.326,23.2048 4.641,41.1057 2.6519,18.5639 4.6409,39.7798 3.9779,47.7358 -0.663,7.9559 2.652,33.1498 8.619,56.3547 12.5969,54.3657 18.5639,96.1344 17.9009,123.3173 -0.663,11.9339 1.989,27.8458 5.967,34.4758 6.6299,12.5969 15.9119,61.6586 26.5198,139.2292 3.315,23.8679 9.282,60.9957 13.2599,82.8746 3.978,21.8788 8.619,54.3657 9.945,71.6036 1.326,17.9009 5.9669,43.0947 9.9449,56.3547 3.315,13.2599 6.63,35.1388 6.63,47.7357 0,12.5969 4.641,44.4207 9.9449,69.6146 5.967,25.8569 13.26,67.6256 16.5749,92.8195 7.293,57.6807 15.912,110.0574 29.8349,182.324 10.6079,55.0287 16.5749,93.4825 29.1718,179.009 7.293,46.4097 17.9009,113.3724 27.8459,172.3791 3.3149,19.8898 9.2819,55.6916 12.5969,79.5595 3.978,23.8679 9.9449,59.6697 13.2599,79.5596 3.315,19.8899 9.282,58.3437 12.597,84.8635 3.9779,26.5199 7.9559,50.3877 9.9449,53.7027 1.989,2.652 4.641,19.8899 6.63,37.7908 1.326,17.9009 4.6409,39.7798 7.2929,49.0617 6.63,28.5089 -15.9119,49.7248 -60.9956,58.3437 -47.7358,9.282 -97.4605,15.9119 -127.9583,17.2379 -25.8569,1.326 -114.6984,36.4648 -153.1522,60.9957 -57.6807,36.4648 -104.7534,93.4829 -124.6433,151.8259 -15.2489,44.421 -19.8899,109.395 -9.945,135.251 5.304,11.934 9.282,31.161 9.282,41.769 0,10.608 7.293,33.15 15.9119,50.388 20.5529,39.117 100.1125,118.013 117.3504,115.361 6.6299,-1.326 14.5859,3.978 18.5639,10.608 3.9779,7.956 17.2379,14.586 34.4758,17.238 14.5859,2.652 35.8018,8.619 46.4097,13.923 14.5859,7.956 49.7247,9.945 167.7381,9.945 97.4605,0 155.1411,2.652 165.7491,7.293 13.2599,5.967 17.2379,13.923 20.5529,38.454 1.9889,16.575 6.6299,43.095 9.9449,58.343 3.978,15.249 6.63,39.78 6.63,55.029 0,15.249 2.652,39.78 5.9669,55.029 9.282,42.432 19.2269,95.471 27.1829,150.5 4.641,27.183 11.2709,64.974 14.5859,82.875 9.945,48.398 18.5639,101.438 21.8789,135.914 1.326,16.575 5.304,47.736 9.2819,69.614 3.315,21.879 9.282,60.996 13.26,86.19 3.3149,25.857 9.9449,55.692 13.9229,66.963 3.978,11.271 5.967,29.171 4.641,39.779 -1.326,10.608 0,25.194 3.3149,31.824 5.967,11.271 24.5309,115.362 38.4538,216.137 21.8789,157.793 28.5089,199.562 36.4648,225.419 5.304,17.238 7.293,43.095 5.304,60.995 l -3.315,30.498 -617.9126,0.663 c -339.4541,0.663 -636.4765,0.663 -660.3443,0.663 -150.5002,-0.663 -274.4805,1.326 -279.7845,3.978 -2.652,1.989 -8.6189,1.326 -13.2599,-1.326 -3.978,-2.652 -71.6036,-3.978 -150.5002,-3.315 -182.324,1.989 -205.5288,1.326 -228.0707,-3.315 -19.2269,-3.978 -63.6477,18.564 -64.9737,32.487 -0.663,9.282 -0.663,119.339 0,185.639 0.663,41.769 1.989,45.084 19.8899,56.355 18.5639,11.271 144.5332,11.934 2697.0691,9.945 1472.5149,-1.326 2681.8202,-1.989 2687.1242,-1.989 z"
       id="path33"
       style="fill:#4a4a4a;fill-opacity:1;stroke-width:0.662996" />
    <path
       d="m 8835.8403,12018.537 c -1.989,-1.989 -104.7534,-5.304 -228.7337,-7.293 -123.3173,-1.989 -233.3747,-4.641 -244.6457,-6.63 -23.2048,-3.978 -67.6256,-7.956 -152.4891,-13.26 -32.4868,-1.989 -116.0244,-11.271 -185.639,-19.89 -68.9516,-8.619 -140.5552,-17.901 -159.1191,-19.227 -149.1742,-15.249 -434.2626,-86.19 -494.5953,-122.654 -12.5969,-7.956 -28.5088,-13.923 -36.4648,-13.923 -7.2929,0 -20.5529,-7.293 -29.1718,-16.575 -8.619,-9.282 -19.2269,-16.575 -24.5309,-16.575 -7.2929,0 -66.9626,-47.736 -96.1345,-77.571 -29.1718,-29.835 -126.6323,-159.782 -147.1851,-196.91 -35.1388,-62.984 -116.6874,-259.894 -116.6874,-282.436 0,-10.608 -4.641,-31.161 -9.9449,-44.421 -5.304,-13.923 -10.608,-42.432 -12.597,-62.984 -1.326,-20.553 -5.3039,-41.769 -7.9559,-45.747 -12.597,-20.553 -14.586,-224.093 -3.315,-307.631 12.5969,-91.493 47.0727,-203.539 90.1675,-291.718 8.6189,-17.901 21.2159,-45.084 27.1828,-59.67 5.967,-14.586 22.5419,-43.094 35.8018,-62.984 13.26,-19.89 29.8349,-47.073 35.8018,-60.996 6.63,-13.26 17.238,-29.172 24.5309,-35.802 6.63,-5.967 12.5969,-13.923 12.5969,-17.238 0,-7.956 86.1896,-111.383 92.8195,-111.383 2.652,0 23.8679,-18.564 47.0728,-40.443 45.7467,-44.421 102.7644,-83.537 175.031,-120.0021 52.3767,-26.5199 189.617,-71.6036 216.7998,-71.6036 9.945,0 25.8569,-3.315 36.4648,-7.293 19.8899,-7.2929 87.5155,-17.2379 164.4231,-23.2049 25.8569,-1.9889 72.2666,-5.9669 104.0904,-8.6189 31.8238,-2.652 188.291,-3.315 348.0731,-2.652 159.7821,1.326 613.2716,1.989 1008.4174,1.989 l 718.0253,0.663 9.945,22.5419 c 5.304,13.2599 11.271,41.7687 13.26,64.9736 1.989,22.5419 7.956,54.3657 12.597,70.941 4.641,16.575 10.608,51.05 13.26,76.244 1.988,25.857 6.629,57.681 10.607,71.604 3.978,14.586 8.619,42.432 9.945,62.984 3.315,35.802 4.641,51.051 11.934,153.816 7.293,102.764 4.641,360.67 -5.304,466.749 -5.304,60.996 -9.945,113.372 -9.282,116.024 0.663,1.989 -1.326,8.619 -3.315,13.923 -1.989,5.304 -7.293,37.128 -11.271,69.615 -18.563,153.815 -77.5701,351.388 -144.5327,483.987 -41.7688,82.875 -53.0397,102.765 -70.2776,123.318 -9.282,11.271 -17.2379,23.204 -17.2379,25.856 0,13.923 -100.7755,116.025 -162.4341,165.75 -53.7027,43.094 -74.9186,55.691 -112.7094,66.962 -25.1939,7.956 -57.6807,19.89 -70.9406,26.52 -13.9229,7.293 -35.8018,12.597 -49.7247,12.597 -13.923,0 -37.1278,5.967 -51.7138,12.597 -15.2489,6.63 -35.8018,11.271 -46.4097,9.945 -11.2709,-1.326 -29.1718,0.663 -39.7798,3.978 -11.2709,3.978 -33.8128,7.956 -49.7247,9.282 -16.5749,1.326 -74.2556,7.293 -127.9583,13.26 -54.3657,5.967 -105.4164,8.619 -114.0354,6.63 -8.6189,-1.989 -19.2269,-1.989 -23.8678,0.663 -3.978,3.315 -33.1499,5.967 -64.9737,6.63 -31.1608,0.663 -64.3106,3.315 -73.5926,5.967 -9.2819,2.652 -18.5639,3.315 -20.5529,1.326 z m 106.7424,-405.754 c 118.6764,-4.641 124.6434,-5.304 195.584,-15.912 29.1718,-4.641 64.3106,-7.956 78.2335,-7.293 13.923,0 35.8018,-3.978 48.3988,-9.282 12.5969,-5.304 27.1828,-7.956 33.1498,-5.304 5.304,1.989 26.5198,-2.652 47.7357,-9.945 20.5529,-7.293 48.3988,-15.249 60.9957,-17.238 17.2379,-2.652 34.4758,-15.249 64.3106,-45.747 51.7137,-51.713 66.9627,-74.255 100.1125,-140.555 64.9736,-130.61 96.1344,-246.634 127.2953,-474.042 12.5969,-94.809 20.5529,-377.908 12.5969,-450.838 -3.315,-27.183 -7.293,-74.255 -8.6189,-103.427 -4.641,-90.831 61.6586,-80.886 -543.657,-81.549 -422.3287,-0.663 -994.4946,-5.304 -1028.3074,-7.956 -3.315,-0.663 -41.1057,1.326 -82.8745,3.315 -41.7688,2.652 -97.4605,5.967 -123.3173,6.63 -92.8195,4.641 -226.7448,29.172 -284.4255,51.714 -57.6806,23.205 -111.3834,59.67 -163.7601,112.046 -28.5088,28.509 -51.7137,54.366 -51.7137,58.344 0,3.978 -7.9559,17.901 -17.2379,31.824 -9.2819,13.923 -33.1498,59.67 -53.7027,101.438 -19.8899,41.769 -39.1168,81.549 -43.0947,88.842 -15.912,30.498 -25.8569,78.896 -29.1719,145.859 -1.989,40.443 -4.641,74.256 -5.304,76.245 -3.3149,5.304 6.63,100.775 15.912,156.467 4.6409,25.857 15.2489,61.658 23.8678,80.885 9.282,18.564 20.5529,49.062 25.1939,67.626 11.9339,46.41 65.6366,132.599 116.6873,186.965 41.7688,45.084 45.7468,47.073 111.3834,69.615 37.1278,11.933 74.2556,22.541 82.8746,22.541 7.9559,0 38.4538,7.293 67.6256,15.912 29.1718,9.282 108.0684,23.868 175.694,33.15 67.6257,9.282 143.8702,20.553 169.0641,24.531 25.8568,3.978 67.6256,7.956 92.8195,8.619 25.8568,0.663 50.3877,3.315 55.0287,5.967 3.978,3.315 9.9449,3.978 13.2599,1.989 2.652,-1.326 42.4318,1.326 87.5155,5.967 101.4385,10.608 74.9186,9.282 250.6126,12.597 81.5486,1.326 149.1742,3.978 151.1632,5.304 2.652,3.315 61.6587,1.989 228.0707,-5.304 z"
       id="path34"
       style="fill:#4a4a4a;fill-opacity:1;stroke-width:0.662996" />
    <path
       d="m 8123.7823,11518.637 c -2.652,-2.652 -49.7248,-6.63 -132.5993,-11.271 -39.7798,-1.989 -89.5045,-6.63 -109.3944,-10.608 -19.8899,-3.315 -71.6036,-7.956 -115.3614,-9.945 -55.6917,-1.989 -84.2005,-5.966 -96.7974,-13.259 -10.608,-6.63 -33.8128,-39.117 -57.6807,-81.549 -42.4318,-74.919 -55.0287,-104.753 -55.0287,-132.599 0,-9.282 -6.63,-36.465 -14.5859,-60.333 -12.597,-37.791 -14.5859,-57.681 -14.5859,-169.064 v -125.969 l 25.1938,-79.56 c 13.9229,-43.758 28.5089,-82.211 31.1608,-85.526 3.315,-3.978 5.967,-12.597 6.63,-19.89 0,-7.956 9.282,-27.183 19.2269,-43.758 10.6079,-16.575 23.8679,-39.117 29.1718,-51.051 39.7798,-86.189 217.4628,-230.722 308.2933,-250.612 12.597,-2.652 47.0728,-16.575 76.2446,-31.161 55.6917,-26.52 84.8635,-30.498 88.8415,-10.608 1.326,5.967 -5.3039,27.183 -14.5859,47.073 -9.2819,19.889 -17.2379,40.442 -17.2379,45.746 0,5.304 -4.641,15.249 -9.9449,22.542 -5.304,6.63 -9.945,16.575 -9.945,21.879 0,4.641 -8.6189,27.183 -19.2269,49.725 -10.6079,21.879 -29.8348,79.559 -43.7577,126.632 -33.1499,117.35 -35.8018,127.958 -39.1168,163.76 -1.989,17.238 -4.641,34.476 -6.63,37.791 -1.989,3.315 -3.978,26.52 -3.978,51.051 0.663,25.194 0.663,52.376 0,60.995 0,29.172 19.8899,130.611 33.1498,165.086 6.63,18.564 27.8459,61.659 47.0728,96.135 33.8128,60.333 49.7247,85.526 117.3503,184.313 19.2269,27.183 34.4759,53.04 34.4759,57.018 0,3.978 5.9669,15.249 13.9229,25.193 20.5529,25.857 13.9229,33.813 -29.8349,33.813 -21.2158,0 -39.1167,-0.663 -40.4427,-1.989 z"
       id="path35"
       style="fill:#4a4a4a;fill-opacity:1;stroke-width:0.662996" />
    <path
       d="m 5878.8766,10356.405 c -51.0507,-17.901 -89.5045,-53.04 -112.7093,-101.439 -36.4648,-76.244 -21.2159,-160.445 37.7908,-214.148 30.4978,-27.182 113.3723,-70.2771 125.9693,-65.6362 10.6079,3.978 92.8195,-6.6299 125.9693,-16.5749 10.6079,-3.315 35.1388,-7.2929 53.7027,-9.2819 24.5308,-1.989 65.6366,-18.5639 155.1411,-62.3217 159.1191,-77.5706 184.976,-86.8525 238.0157,-86.8525 51.7137,0 127.9583,10.6079 155.8041,20.5529 38.4538,14.5859 102.7645,48.3987 102.7645,53.7027 0,3.315 10.6079,11.9339 23.2049,19.2269 37.7907,22.5419 70.2776,92.1565 70.9406,151.8257 0.663,26.52 -13.923,94.809 -21.2159,102.102 -3.315,3.315 -6.63,11.934 -6.63,17.901 0,11.271 -30.4978,51.713 -71.6036,95.471 -29.1718,30.498 -116.6873,73.593 -175.694,85.527 -41.7688,8.619 -59.6697,9.282 -92.8195,3.315 -121.3283,-21.216 -233.3747,-24.531 -292.3814,-9.282 -21.2159,5.304 -40.4428,8.619 -43.0948,7.293 -2.6519,-1.989 -28.5088,1.326 -57.6806,6.63 -89.5045,16.575 -172.3791,17.238 -215.4739,1.989 z m 762.4458,-99.45 c 75.5816,-22.542 141.2183,-144.533 120.6654,-222.766 -3.978,-13.923 -8.619,-33.813 -10.608,-43.7583 -3.9779,-19.2269 -63.6476,-80.2225 -94.8084,-96.7974 -42.4318,-22.5419 -102.7645,-26.5199 -164.4231,-11.271 -18.5639,4.641 -61.6587,39.7798 -76.9076,62.3217 -45.0838,66.963 -45.0838,67.626 -45.0838,110.72 0,81.549 17.2379,122.655 69.6147,167.075 54.3657,45.747 124.6433,57.681 201.5508,34.476 z"
       id="path36"
       style="fill:#4a4a4a;fill-opacity:1;stroke-width:0.662996" />
  </g>
</svg>
